<svg width="23" height="23" viewBox="0 0 23 23" fill="none" xmlns="http://www.w3.org/2000/svg">
<path d="M11.2502 2.10858C6.20225 2.10858 2.10962 6.20121 2.10962 11.2492C2.10962 16.2972 6.20225 20.3898 11.2502 20.3898C16.2982 20.3898 20.3909 16.2972 20.3909 11.2492C20.3909 6.20121 16.2982 2.10858 11.2502 2.10858Z" fill="white" stroke="#4FD1C5" stroke-width="0.75" stroke-miterlimit="10"/>
<path d="M11.2501 2.10858C8.69824 2.10858 6.29883 6.20121 6.29883 11.2492C6.29883 16.2972 8.69824 20.3898 11.2501 20.3898C13.802 20.3898 16.2015 16.2972 16.2015 11.2492C16.2015 6.20121 13.802 2.10858 11.2501 2.10858Z" fill="white" stroke="#4FD1C5" stroke-width="0.75" stroke-miterlimit="10"/>
<path d="M5.15625 5.15552C6.83672 6.34863 8.95224 7.06011 11.2501 7.06011C13.548 7.06011 15.6636 6.34863 17.344 5.15552" fill="white"/>
<path d="M5.15625 5.15552C6.83672 6.34863 8.95224 7.06011 11.2501 7.06011C13.548 7.06011 15.6636 6.34863 17.344 5.15552" stroke="#4FD1C5" stroke-width="0.75" stroke-linecap="round" stroke-linejoin="round"/>
<path d="M17.344 17.3444C15.6636 16.1513 13.548 15.4398 11.2501 15.4398C8.95224 15.4398 6.83672 16.1513 5.15625 17.3444" stroke="#4FD1C5" stroke-width="0.75" stroke-linecap="round" stroke-linejoin="round"/>
<path d="M11.25 2.10858V20.3898" stroke="#4FD1C5" stroke-width="0.75" stroke-miterlimit="10"/>
<path d="M20.3909 11.249H2.10962" stroke="#4FD1C5" stroke-width="0.75" stroke-miterlimit="10"/>
</svg>
