<svg width="22" height="22" viewBox="0 0 22 22" fill="none" xmlns="http://www.w3.org/2000/svg">
<path d="M20.8795 0H1.1219C0.502293 0 0 0.502293 0 1.1219V10.5297C0 11.1493 0.502293 11.6516 1.1219 11.6516H5.17558V20.8795C5.17522 21.1769 5.29311 21.4623 5.50329 21.6727C5.71347 21.8831 5.99869 22.0014 6.29611 22.0014H15.7039C16.3235 22.0014 16.8258 21.4991 16.8258 20.8795V11.6557H20.8795C21.1769 11.6557 21.4621 11.5375 21.6723 11.327C21.8825 11.1166 22.0004 10.8312 22 10.5338V1.1219C22.0004 0.824482 21.8825 0.539118 21.6723 0.328681C21.4621 0.118244 21.1769 0 20.8795 0ZM1.30042 1.30179H10.3498V10.3512H1.30042V1.30179ZM15.5254 20.701H6.476V11.6557H15.5254V20.701ZM20.6996 10.3512H11.6502V1.30179H20.6996V10.3512Z" fill="#2D3748"/>
<path d="M7.44825 7.32455C7.70452 7.56505 8.10542 7.55869 8.35393 7.31018C8.60244 7.06167 8.6088 6.66077 8.3683 6.40451L6.29065 4.32686C6.03589 4.07448 5.62536 4.07448 5.3706 4.32686L3.28746 6.40451C3.11431 6.56701 3.04339 6.81092 3.10242 7.04093C3.16146 7.27094 3.34107 7.45055 3.57108 7.50959C3.80109 7.56862 4.045 7.4977 4.20751 7.32455L5.82513 5.70692L7.44825 7.32455Z" fill="#2D3748"/>
<path d="M14.5573 7.32455L16.1749 5.70692L17.7926 7.32455C18.0488 7.56505 18.4497 7.55869 18.6982 7.31018C18.9468 7.06167 18.9531 6.66077 18.7126 6.40451L16.635 4.32686C16.3802 4.07448 15.9697 4.07448 15.7149 4.32686L13.6373 6.40451C13.3968 6.66077 13.4031 7.06167 13.6516 7.31018C13.9001 7.55869 14.3011 7.56505 14.5573 7.32455Z" fill="#2D3748"/>
<path d="M9.38157 14.6767C9.12495 14.4366 8.72405 14.4435 8.4759 14.6924C8.22776 14.9413 8.22201 15.3422 8.4629 15.5981L10.5406 17.6744C10.6624 17.7966 10.8279 17.8654 11.0006 17.8654C11.1732 17.8654 11.3387 17.7966 11.4606 17.6744L13.5382 15.5981C13.7028 15.4338 13.7672 15.1941 13.7072 14.9694C13.6472 14.7446 13.4718 14.569 13.2472 14.5087C13.0226 14.4483 12.7828 14.5123 12.6182 14.6767L11.0006 16.2957L9.38157 14.6767Z" fill="#2D3748"/>
</svg>
