<svg width="15" height="15" viewBox="0 0 15 15" fill="none" xmlns="http://www.w3.org/2000/svg">
<path d="M12.5391 6.56262H8.43752C8.06456 6.56262 7.70687 6.41446 7.44315 6.15074C7.17942 5.88702 7.03127 5.52933 7.03127 5.15637V1.05481C7.03127 1.02373 7.01892 0.993922 6.99694 0.971946C6.97497 0.949969 6.94516 0.937622 6.91408 0.937622H4.21877C3.72149 0.937622 3.24457 1.13517 2.89294 1.4868C2.54131 1.83843 2.34377 2.31534 2.34377 2.81262V12.1876C2.34377 12.6849 2.54131 13.1618 2.89294 13.5134C3.24457 13.8651 3.72149 14.0626 4.21877 14.0626H10.7813C11.2785 14.0626 11.7555 13.8651 12.1071 13.5134C12.4587 13.1618 12.6563 12.6849 12.6563 12.1876V6.67981C12.6563 6.64873 12.6439 6.61892 12.6219 6.59694C12.6 6.57497 12.5702 6.56262 12.5391 6.56262Z" fill="#4FD1C5"/>
<path d="M12.2818 5.526L8.06867 1.31282C8.06047 1.30467 8.05006 1.29913 8.03872 1.29689C8.02739 1.29465 8.01565 1.29581 8.00497 1.30022C7.99429 1.30464 7.98516 1.31211 7.97872 1.3217C7.97228 1.33129 7.96881 1.34257 7.96877 1.35412V5.15715C7.96877 5.28147 8.01815 5.4007 8.10606 5.48861C8.19397 5.57652 8.31319 5.6259 8.43752 5.6259H12.2405C12.2521 5.62585 12.2634 5.62239 12.273 5.61595C12.2826 5.60951 12.29 5.60037 12.2944 5.5897C12.2989 5.57902 12.3 5.56728 12.2978 5.55594C12.2955 5.54461 12.29 5.53419 12.2818 5.526Z" fill="#4FD1C5"/>
</svg>
