<svg width="23" height="23" viewBox="0 0 23 23" fill="none" xmlns="http://www.w3.org/2000/svg">
<path d="M7.73425 19.6874C8.5109 19.6874 9.1405 19.0578 9.1405 18.2811C9.1405 17.5045 8.5109 16.8749 7.73425 16.8749C6.9576 16.8749 6.328 17.5045 6.328 18.2811C6.328 19.0578 6.9576 19.6874 7.73425 19.6874Z" fill="white"/>
<path d="M17.5781 19.6874C18.3547 19.6874 18.9843 19.0578 18.9843 18.2811C18.9843 17.5045 18.3547 16.8749 17.5781 16.8749C16.8014 16.8749 16.1718 17.5045 16.1718 18.2811C16.1718 19.0578 16.8014 19.6874 17.5781 19.6874Z" fill="white"/>
<path d="M20.0741 5.30796C19.9753 5.18713 19.8509 5.08981 19.7098 5.02308C19.5687 4.95634 19.4146 4.92185 19.2585 4.92212H5.88375L5.61436 3.3937C5.58564 3.2309 5.50046 3.08342 5.37381 2.97717C5.24715 2.87093 5.0871 2.81271 4.92178 2.81274H2.10928C1.9228 2.81274 1.74396 2.88682 1.6121 3.01868C1.48024 3.15055 1.40616 3.32939 1.40616 3.51587C1.40616 3.70235 1.48024 3.88119 1.6121 4.01305C1.74396 4.14491 1.9228 4.21899 2.10928 4.21899H4.33204L6.33858 15.5912C6.3673 15.754 6.45248 15.9014 6.57913 16.0077C6.70579 16.1139 6.86584 16.1721 7.03116 16.1721H18.2812C18.4676 16.1721 18.6465 16.098 18.7783 15.9662C18.9102 15.8343 18.9843 15.6555 18.9843 15.469C18.9843 15.2825 18.9102 15.1037 18.7783 14.9718C18.6465 14.8399 18.4676 14.7659 18.2812 14.7659H7.6209L7.37305 13.3596H17.9929C18.2367 13.3593 18.473 13.2748 18.6616 13.1203C18.8503 12.9658 18.9798 12.7509 19.0282 12.5119L20.2938 6.18379C20.3243 6.03064 20.3205 5.87263 20.2825 5.72117C20.2445 5.56971 20.1733 5.42857 20.0741 5.30796Z" fill="white"/>
</svg>
