<svg width="23" height="23" viewBox="0 0 23 23" fill="none" xmlns="http://www.w3.org/2000/svg">
<path d="M6.32812 1.41821H10.3711C10.4146 1.41821 10.4565 1.4353 10.4873 1.46606C10.5181 1.49683 10.5352 1.53876 10.5352 1.58228V7.73462C10.5352 8.29717 10.7585 8.83684 11.1562 9.23462C11.554 9.6324 12.0937 9.85571 12.6562 9.85571H18.8086C18.8521 9.85571 18.894 9.8728 18.9248 9.90356C18.9556 9.93433 18.9727 9.97626 18.9727 10.0198V18.2815C18.9727 19.0243 18.6776 19.7367 18.1523 20.262C17.6271 20.7872 16.9147 21.0823 16.1719 21.0823H6.32812C5.58531 21.0823 4.8729 20.7872 4.34766 20.262C3.82241 19.7367 3.52734 19.0243 3.52734 18.2815V4.21899C3.52734 3.47618 3.82241 2.76377 4.34766 2.23853C4.8729 1.71328 5.58531 1.41821 6.32812 1.41821ZM7.73438 15.4573C7.54479 15.4573 7.36258 15.5322 7.22852 15.6663C7.09446 15.8003 7.01953 15.9825 7.01953 16.1721C7.01953 16.3617 7.09446 16.5439 7.22852 16.678C7.36257 16.812 7.54479 16.887 7.73438 16.887H14.7656C14.9552 16.887 15.1374 16.812 15.2715 16.678C15.4055 16.5439 15.4805 16.3617 15.4805 16.1721C15.4805 15.9825 15.4055 15.8003 15.2715 15.6663C15.1374 15.5322 14.9552 15.4573 14.7656 15.4573H7.73438ZM7.73438 11.9417C7.54479 11.9417 7.36258 12.0166 7.22852 12.1506C7.09446 12.2847 7.01953 12.4669 7.01953 12.6565C7.01953 12.8461 7.09446 13.0283 7.22852 13.1624C7.36257 13.2964 7.54479 13.3713 7.73438 13.3713H14.7656C14.9552 13.3713 15.1374 13.2964 15.2715 13.1624C15.4055 13.0283 15.4805 12.8461 15.4805 12.6565C15.4805 12.4669 15.4055 12.2847 15.2715 12.1506C15.1374 12.0166 14.9552 11.9417 14.7656 11.9417H7.73438Z" fill="white" stroke="#4FD1C5" stroke-width="0.0234375"/>
<path d="M12.0555 1.95636C12.0703 1.95927 12.084 1.96726 12.0946 1.97784L18.4139 8.29718C18.4245 8.30783 18.4325 8.32151 18.4354 8.33624C18.4383 8.35094 18.4363 8.36635 18.4305 8.38019C18.4248 8.39392 18.4155 8.40603 18.4032 8.41437C18.3907 8.42274 18.3752 8.427 18.3602 8.42706H12.6561C12.4728 8.42706 12.2965 8.35458 12.1669 8.22491C12.0372 8.09525 11.9647 7.91901 11.9647 7.73566V2.03156C11.9648 2.01671 11.9692 2.00193 11.9774 1.98956C11.9858 1.97715 11.9978 1.96699 12.0116 1.96124C12.0254 1.95553 12.0409 1.9535 12.0555 1.95636Z" fill="white" stroke="#4FD1C5" stroke-width="0.0234375"/>
</svg>
