<svg width="15" height="15" viewBox="0 0 15 15" fill="none" xmlns="http://www.w3.org/2000/svg">
<path d="M9.74524 1.89175C9.17513 1.27622 8.37884 0.937256 7.49993 0.937256C6.61634 0.937256 5.81741 1.27417 5.24993 1.88589C4.6763 2.50435 4.39681 3.34487 4.46243 4.25249C4.59251 6.04311 5.95511 7.49975 7.49993 7.49975C9.04476 7.49975 10.405 6.04341 10.5371 4.25307C10.6036 3.35366 10.3224 2.51489 9.74524 1.89175Z" fill="#4FD1C5"/>
<path d="M12.6562 14.0616H2.34371C2.20873 14.0633 2.07505 14.035 1.95241 13.9786C1.82977 13.9222 1.72124 13.8391 1.63473 13.7355C1.4443 13.5079 1.36754 13.197 1.42438 12.8827C1.67164 11.511 2.44332 10.3588 3.65621 9.54987C4.73375 8.8318 6.09869 8.43658 7.49996 8.43658C8.90123 8.43658 10.2662 8.83209 11.3437 9.54987C12.5566 10.3585 13.3283 11.5107 13.5755 12.8824C13.6324 13.1967 13.5556 13.5076 13.3652 13.7352C13.2787 13.8389 13.1702 13.922 13.0475 13.9784C12.9249 14.0349 12.7912 14.0633 12.6562 14.0616Z" fill="#4FD1C5"/>
</svg>
