<svg width="11" height="11" viewBox="0 0 11 11" fill="none" xmlns="http://www.w3.org/2000/svg">
<g clip-path="url(#clip0_67_364)">
<path d="M10.088 2.58967C10.0632 2.54153 10.0274 2.49991 9.98356 2.46821C9.93968 2.43652 9.88893 2.41563 9.83545 2.40725C9.78197 2.39888 9.72727 2.40325 9.6758 2.42001C9.62432 2.43678 9.57754 2.46546 9.53925 2.50373L8.21926 3.82459C8.15446 3.88845 8.06714 3.92425 7.97616 3.92425C7.88518 3.92425 7.79786 3.88845 7.73306 3.82459L7.16244 3.25311C7.13051 3.22119 7.10518 3.18329 7.0879 3.14158C7.07062 3.09987 7.06173 3.05516 7.06173 3.01001C7.06173 2.96486 7.07062 2.92016 7.0879 2.87845C7.10518 2.83674 7.13051 2.79884 7.16244 2.76692L8.47685 1.45229C8.51626 1.41289 8.54549 1.3645 8.56204 1.3113C8.57859 1.25809 8.58196 1.20166 8.57185 1.14686C8.56175 1.09207 8.53847 1.04055 8.50403 0.996743C8.46959 0.952939 8.42502 0.918164 8.37416 0.895413C7.38136 0.451546 6.14215 0.683147 5.36076 1.45873C4.69689 2.11787 4.49902 3.14783 4.81828 4.28457C4.83549 4.34519 4.83559 4.40939 4.81857 4.47006C4.80154 4.53073 4.76805 4.58551 4.72182 4.62832L1.1451 7.89502C1.00576 8.02013 0.893369 8.17231 0.814782 8.34228C0.736194 8.51225 0.693057 8.69645 0.688002 8.88365C0.682948 9.07084 0.716082 9.2571 0.785382 9.43106C0.854683 9.60503 0.958698 9.76305 1.09108 9.8955C1.22347 10.0279 1.38144 10.132 1.55538 10.2014C1.72932 10.2708 1.91556 10.304 2.10276 10.299C2.28995 10.2941 2.47417 10.251 2.64418 10.1725C2.81418 10.094 2.96642 9.98165 3.09158 9.84236L6.3933 6.2577C6.4355 6.21205 6.48935 6.17879 6.54905 6.16149C6.60875 6.14419 6.67204 6.1435 6.73211 6.15951C7.05574 6.24819 7.38956 6.29419 7.72511 6.29637C8.44269 6.29637 9.0724 6.06412 9.52658 5.6166C10.3677 4.78795 10.496 3.38244 10.088 2.58967ZM2.13746 9.60711C1.99597 9.62255 1.85316 9.5937 1.72876 9.52453C1.60436 9.45536 1.5045 9.34928 1.44295 9.22094C1.38141 9.0926 1.36122 8.94832 1.38516 8.80801C1.40911 8.6677 1.47601 8.53828 1.57664 8.43762C1.67727 8.33695 1.80666 8.27 1.94696 8.24601C2.08726 8.22201 2.23155 8.24216 2.35992 8.30366C2.48828 8.36516 2.59439 8.46498 2.66361 8.58936C2.73282 8.71373 2.76172 8.85653 2.74633 8.99803C2.72939 9.15372 2.6598 9.29896 2.54908 9.40972C2.43836 9.52048 2.29315 9.59012 2.13746 9.60711Z" fill="#2D3748"/>
</g>
<defs>
<clipPath id="clip0_67_364">
<rect width="11" height="11" fill="white"/>
</clipPath>
</defs>
</svg>
