<svg width="884" height="297" viewBox="0 0 884 297" fill="none" xmlns="http://www.w3.org/2000/svg">
<path d="M867.222 286.553V291.25H868.608C869.318 291.25 869.813 290.9 870.093 290.2C870.246 289.816 870.322 289.359 870.322 288.828C870.322 288.096 870.207 287.534 869.976 287.144C869.748 286.75 869.292 286.553 868.608 286.553H867.222ZM868.862 285.303C869.308 285.309 869.679 285.361 869.976 285.459C870.48 285.625 870.889 285.929 871.201 286.372C871.452 286.73 871.623 287.118 871.714 287.534C871.805 287.951 871.851 288.348 871.851 288.726C871.851 289.683 871.659 290.493 871.274 291.157C870.754 292.052 869.95 292.5 868.862 292.5H865.762V285.303H868.862ZM874.976 288.184C874.653 288.184 874.403 288.285 874.224 288.486C874.048 288.688 873.937 288.962 873.892 289.307H876.055C876.032 288.939 875.92 288.66 875.718 288.472C875.519 288.28 875.272 288.184 874.976 288.184ZM874.976 287.036C875.418 287.036 875.817 287.119 876.172 287.285C876.527 287.451 876.82 287.713 877.051 288.071C877.259 288.387 877.394 288.753 877.456 289.17C877.492 289.414 877.507 289.766 877.5 290.225H873.857C873.877 290.758 874.045 291.133 874.36 291.348C874.552 291.481 874.784 291.548 875.054 291.548C875.34 291.548 875.573 291.466 875.752 291.304C875.85 291.216 875.936 291.094 876.011 290.938H877.432C877.396 291.253 877.231 291.574 876.938 291.899C876.483 292.417 875.845 292.676 875.024 292.676C874.347 292.676 873.75 292.458 873.232 292.021C872.715 291.585 872.456 290.876 872.456 289.893C872.456 288.971 872.689 288.265 873.154 287.773C873.623 287.282 874.23 287.036 874.976 287.036ZM881.621 289.087C881.595 288.888 881.528 288.709 881.421 288.55C881.265 288.335 881.022 288.228 880.693 288.228C880.225 288.228 879.904 288.46 879.731 288.926C879.64 289.173 879.595 289.502 879.595 289.912C879.595 290.303 879.64 290.617 879.731 290.854C879.897 291.297 880.21 291.519 880.669 291.519C880.994 291.519 881.226 291.431 881.362 291.255C881.499 291.079 881.582 290.851 881.611 290.571H883.032C883 290.994 882.847 291.395 882.573 291.772C882.137 292.381 881.491 292.686 880.635 292.686C879.779 292.686 879.149 292.432 878.745 291.924C878.341 291.416 878.14 290.757 878.14 289.946C878.14 289.032 878.363 288.32 878.809 287.812C879.255 287.305 879.87 287.051 880.654 287.051C881.322 287.051 881.867 287.201 882.29 287.5C882.716 287.799 882.969 288.328 883.047 289.087H881.621Z" fill="#CBD5E0"/>
<path d="M789.737 285.303H791.314L794.181 290.327V285.303H795.582V292.5H794.078L791.139 287.388V292.5H789.737V285.303ZM799.264 291.519C799.671 291.519 799.983 291.374 800.201 291.084C800.419 290.794 800.528 290.382 800.528 289.849C800.528 289.315 800.419 288.905 800.201 288.618C799.983 288.328 799.671 288.184 799.264 288.184C798.857 288.184 798.543 288.328 798.321 288.618C798.103 288.905 797.994 289.315 797.994 289.849C797.994 290.382 798.103 290.794 798.321 291.084C798.543 291.374 798.857 291.519 799.264 291.519ZM801.988 289.849C801.988 290.63 801.764 291.299 801.314 291.855C800.865 292.409 800.183 292.686 799.269 292.686C798.354 292.686 797.672 292.409 797.223 291.855C796.773 291.299 796.549 290.63 796.549 289.849C796.549 289.08 796.773 288.415 797.223 287.852C797.672 287.288 798.354 287.007 799.269 287.007C800.183 287.007 800.865 287.288 801.314 287.852C801.764 288.415 801.988 289.08 801.988 289.849ZM806.271 287.178H807.765L805.846 292.5H804.376L802.467 287.178H804.029L805.138 291.104L806.271 287.178Z" fill="#CBD5E0"/>
<path d="M718.945 291.426C719.541 291.426 720.013 291.206 720.361 290.767C720.713 290.327 720.889 289.702 720.889 288.892C720.889 288.084 720.713 287.461 720.361 287.021C720.013 286.579 719.541 286.357 718.945 286.357C718.35 286.357 717.874 286.577 717.52 287.017C717.165 287.456 716.987 288.081 716.987 288.892C716.987 289.702 717.165 290.327 717.52 290.767C717.874 291.206 718.35 291.426 718.945 291.426ZM722.393 288.892C722.393 290.184 722.03 291.174 721.304 291.86C720.76 292.42 719.974 292.7 718.945 292.7C717.917 292.7 717.131 292.42 716.587 291.86C715.858 291.174 715.493 290.184 715.493 288.892C715.493 287.573 715.858 286.584 716.587 285.923C717.131 285.363 717.917 285.083 718.945 285.083C719.974 285.083 720.76 285.363 721.304 285.923C722.03 286.584 722.393 287.573 722.393 288.892ZM726.611 289.087C726.585 288.888 726.519 288.709 726.411 288.55C726.255 288.335 726.012 288.228 725.684 288.228C725.215 288.228 724.894 288.46 724.722 288.926C724.631 289.173 724.585 289.502 724.585 289.912C724.585 290.303 724.631 290.617 724.722 290.854C724.888 291.297 725.2 291.519 725.659 291.519C725.985 291.519 726.216 291.431 726.353 291.255C726.489 291.079 726.572 290.851 726.602 290.571H728.022C727.99 290.994 727.837 291.395 727.563 291.772C727.127 292.381 726.481 292.686 725.625 292.686C724.769 292.686 724.139 292.432 723.735 291.924C723.332 291.416 723.13 290.757 723.13 289.946C723.13 289.032 723.353 288.32 723.799 287.812C724.245 287.305 724.86 287.051 725.645 287.051C726.312 287.051 726.857 287.201 727.28 287.5C727.707 287.799 727.959 288.328 728.037 289.087H726.611ZM728.452 288.218V287.227H729.194V285.742H730.571V287.227H731.436V288.218H730.571V291.03C730.571 291.248 730.599 291.385 730.654 291.44C730.71 291.493 730.879 291.519 731.162 291.519C731.204 291.519 731.248 291.519 731.294 291.519C731.343 291.515 731.39 291.512 731.436 291.509V292.549L730.776 292.573C730.119 292.596 729.67 292.482 729.429 292.231C729.272 292.072 729.194 291.826 729.194 291.494V288.218H728.452Z" fill="#CBD5E0"/>
<path d="M641.351 290.278C641.396 290.607 641.486 290.853 641.619 291.016C641.863 291.312 642.282 291.46 642.874 291.46C643.229 291.46 643.517 291.421 643.738 291.343C644.158 291.193 644.368 290.915 644.368 290.508C644.368 290.27 644.264 290.086 644.056 289.956C643.847 289.829 643.52 289.717 643.074 289.619L642.312 289.448C641.564 289.279 641.046 289.095 640.76 288.896C640.275 288.564 640.032 288.045 640.032 287.339C640.032 286.694 640.267 286.159 640.735 285.732C641.204 285.306 641.893 285.093 642.801 285.093C643.559 285.093 644.205 285.295 644.739 285.698C645.276 286.099 645.558 286.681 645.584 287.446H644.139C644.113 287.013 643.924 286.706 643.572 286.523C643.338 286.403 643.047 286.343 642.698 286.343C642.311 286.343 642.002 286.421 641.771 286.577C641.539 286.733 641.424 286.951 641.424 287.231C641.424 287.489 641.538 287.681 641.766 287.808C641.912 287.892 642.225 287.992 642.703 288.105L643.943 288.403C644.487 288.534 644.897 288.708 645.174 288.926C645.604 289.264 645.818 289.754 645.818 290.396C645.818 291.053 645.566 291.6 645.062 292.036C644.56 292.469 643.851 292.686 642.933 292.686C641.995 292.686 641.258 292.472 640.721 292.046C640.184 291.616 639.915 291.027 639.915 290.278H641.351ZM648.919 288.184C648.597 288.184 648.346 288.285 648.167 288.486C647.991 288.688 647.881 288.962 647.835 289.307H649.998C649.975 288.939 649.863 288.66 649.661 288.472C649.463 288.28 649.215 288.184 648.919 288.184ZM648.919 287.036C649.362 287.036 649.76 287.119 650.115 287.285C650.47 287.451 650.763 287.713 650.994 288.071C651.202 288.387 651.338 288.753 651.399 289.17C651.435 289.414 651.45 289.766 651.443 290.225H647.801C647.82 290.758 647.988 291.133 648.304 291.348C648.496 291.481 648.727 291.548 648.997 291.548C649.284 291.548 649.516 291.466 649.695 291.304C649.793 291.216 649.879 291.094 649.954 290.938H651.375C651.339 291.253 651.175 291.574 650.882 291.899C650.426 292.417 649.788 292.676 648.968 292.676C648.291 292.676 647.693 292.458 647.176 292.021C646.658 291.585 646.399 290.876 646.399 289.893C646.399 288.971 646.632 288.265 647.098 287.773C647.566 287.282 648.174 287.036 648.919 287.036ZM656.053 289.839C656.053 289.429 655.958 289.066 655.77 288.75C655.584 288.434 655.281 288.276 654.861 288.276C654.357 288.276 654.01 288.516 653.821 288.994C653.724 289.248 653.675 289.57 653.675 289.961C653.675 290.579 653.839 291.014 654.168 291.265C654.363 291.411 654.594 291.484 654.861 291.484C655.249 291.484 655.543 291.335 655.745 291.035C655.95 290.736 656.053 290.337 656.053 289.839ZM655.262 287.061C655.883 287.061 656.409 287.29 656.839 287.749C657.272 288.208 657.488 288.882 657.488 289.771C657.488 290.708 657.277 291.423 656.854 291.914C656.434 292.406 655.892 292.651 655.228 292.651C654.804 292.651 654.453 292.546 654.173 292.334C654.02 292.217 653.87 292.046 653.724 291.821V294.595H652.347V287.178H653.68V287.964C653.829 287.733 653.989 287.55 654.158 287.417C654.467 287.179 654.835 287.061 655.262 287.061Z" fill="#CBD5E0"/>
<path d="M565.729 289.78H567.556L566.657 286.948L565.729 289.78ZM565.822 285.303H567.521L570.07 292.5H568.439L567.976 291.021H565.324L564.826 292.5H563.254L565.822 285.303ZM572.263 287.178V290.386C572.263 290.688 572.299 290.916 572.37 291.069C572.497 291.34 572.746 291.475 573.117 291.475C573.592 291.475 573.918 291.283 574.094 290.898C574.185 290.69 574.23 290.415 574.23 290.073V287.178H575.642V292.5H574.289V291.748C574.276 291.764 574.243 291.813 574.191 291.895C574.139 291.976 574.077 292.048 574.006 292.109C573.788 292.305 573.576 292.438 573.371 292.51C573.169 292.581 572.932 292.617 572.658 292.617C571.87 292.617 571.34 292.334 571.066 291.768C570.913 291.455 570.837 290.994 570.837 290.386V287.178H572.263ZM579.274 291.357C579.6 291.357 579.875 291.235 580.1 290.991C580.324 290.744 580.437 290.352 580.437 289.814C580.437 289.31 580.329 288.926 580.114 288.662C579.903 288.398 579.618 288.267 579.26 288.267C578.771 288.267 578.435 288.496 578.249 288.955C578.151 289.199 578.103 289.5 578.103 289.858C578.103 290.168 578.155 290.443 578.259 290.684C578.448 291.133 578.786 291.357 579.274 291.357ZM578.928 287.051C579.195 287.051 579.427 287.091 579.626 287.173C579.965 287.313 580.238 287.57 580.446 287.944V287.178H581.799V292.227C581.799 292.913 581.683 293.431 581.452 293.779C581.055 294.378 580.293 294.678 579.167 294.678C578.487 294.678 577.932 294.544 577.502 294.277C577.072 294.01 576.835 293.612 576.789 293.081H578.303C578.342 293.244 578.405 293.361 578.493 293.433C578.643 293.56 578.895 293.623 579.25 293.623C579.751 293.623 580.087 293.455 580.256 293.12C580.367 292.905 580.422 292.544 580.422 292.036V291.694C580.288 291.922 580.145 292.093 579.992 292.207C579.715 292.419 579.356 292.524 578.913 292.524C578.229 292.524 577.683 292.285 577.272 291.807C576.866 291.325 576.662 290.674 576.662 289.854C576.662 289.062 576.859 288.398 577.253 287.861C577.647 287.321 578.205 287.051 578.928 287.051Z" fill="#CBD5E0"/>
<path d="M493.141 289.771V289.937C493.154 290.493 493.214 290.885 493.321 291.113C493.432 291.338 493.666 291.45 494.024 291.45C494.379 291.45 494.614 291.326 494.728 291.079C494.796 290.933 494.83 290.685 494.83 290.337V285.303H496.334V290.312C496.334 290.924 496.228 291.41 496.017 291.768C495.659 292.373 495.012 292.676 494.078 292.676C493.144 292.676 492.517 292.432 492.198 291.943C491.879 291.452 491.72 290.783 491.72 289.937V289.771H493.141ZM499.103 287.178V290.386C499.103 290.688 499.138 290.916 499.21 291.069C499.337 291.34 499.586 291.475 499.957 291.475C500.432 291.475 500.758 291.283 500.934 290.898C501.025 290.69 501.07 290.415 501.07 290.073V287.178H502.481V292.5H501.129V291.748C501.116 291.764 501.083 291.813 501.031 291.895C500.979 291.976 500.917 292.048 500.846 292.109C500.628 292.305 500.416 292.438 500.211 292.51C500.009 292.581 499.771 292.617 499.498 292.617C498.71 292.617 498.18 292.334 497.906 291.768C497.753 291.455 497.677 290.994 497.677 290.386V287.178H499.103ZM505.25 292.5H503.858V285.303H505.25V292.5Z" fill="#CBD5E0"/>
<path d="M418.141 289.771V289.937C418.154 290.493 418.214 290.885 418.321 291.113C418.432 291.338 418.666 291.45 419.024 291.45C419.379 291.45 419.614 291.326 419.728 291.079C419.796 290.933 419.83 290.685 419.83 290.337V285.303H421.334V290.312C421.334 290.924 421.228 291.41 421.017 291.768C420.659 292.373 420.012 292.676 419.078 292.676C418.144 292.676 417.517 292.432 417.198 291.943C416.879 291.452 416.72 290.783 416.72 289.937V289.771H418.141ZM424.103 287.178V290.386C424.103 290.688 424.138 290.916 424.21 291.069C424.337 291.34 424.586 291.475 424.957 291.475C425.432 291.475 425.758 291.283 425.934 290.898C426.025 290.69 426.07 290.415 426.07 290.073V287.178H427.481V292.5H426.129V291.748C426.116 291.764 426.083 291.813 426.031 291.895C425.979 291.976 425.917 292.048 425.846 292.109C425.628 292.305 425.416 292.438 425.211 292.51C425.009 292.581 424.771 292.617 424.498 292.617C423.71 292.617 423.18 292.334 422.906 291.768C422.753 291.455 422.677 290.994 422.677 290.386V287.178H424.103ZM431.778 287.051C432.328 287.051 432.778 287.196 433.126 287.485C433.478 287.772 433.653 288.249 433.653 288.916V292.5H432.228V289.263C432.228 288.983 432.19 288.768 432.115 288.618C431.979 288.345 431.718 288.208 431.334 288.208C430.862 288.208 430.538 288.408 430.362 288.809C430.271 289.02 430.226 289.29 430.226 289.619V292.5H428.839V287.188H430.182V287.964C430.361 287.69 430.53 287.493 430.689 287.373C430.976 287.158 431.339 287.051 431.778 287.051Z" fill="#CBD5E0"/>
<path d="M345.532 285.303H347.695V292.5H346.294V287.632C346.294 287.492 346.296 287.297 346.299 287.046C346.302 286.792 346.304 286.597 346.304 286.46L344.941 292.5H343.481L342.129 286.46C342.129 286.597 342.131 286.792 342.134 287.046C342.137 287.297 342.139 287.492 342.139 287.632V292.5H340.737V285.303H342.925L344.233 290.962L345.532 285.303ZM351.914 289.912C351.826 289.967 351.737 290.013 351.646 290.049C351.558 290.081 351.436 290.112 351.279 290.142L350.967 290.2C350.674 290.252 350.464 290.316 350.337 290.391C350.122 290.518 350.015 290.715 350.015 290.981C350.015 291.219 350.08 291.392 350.21 291.499C350.343 291.603 350.505 291.655 350.693 291.655C350.993 291.655 351.268 291.567 351.519 291.392C351.772 291.216 351.904 290.895 351.914 290.43V289.912ZM351.069 289.263C351.326 289.23 351.51 289.189 351.621 289.141C351.82 289.056 351.919 288.924 351.919 288.745C351.919 288.527 351.842 288.377 351.689 288.296C351.54 288.211 351.318 288.169 351.025 288.169C350.697 288.169 350.464 288.25 350.327 288.413C350.229 288.534 350.164 288.696 350.132 288.901H348.789C348.818 288.436 348.949 288.053 349.18 287.754C349.548 287.285 350.179 287.051 351.074 287.051C351.657 287.051 352.174 287.166 352.627 287.397C353.079 287.629 353.306 288.065 353.306 288.706V291.147C353.306 291.317 353.309 291.522 353.315 291.763C353.325 291.945 353.353 292.069 353.398 292.134C353.444 292.199 353.512 292.253 353.604 292.295V292.5H352.09C352.048 292.393 352.018 292.292 352.002 292.197C351.986 292.103 351.973 291.995 351.963 291.875C351.771 292.083 351.549 292.261 351.299 292.407C350.999 292.58 350.661 292.666 350.283 292.666C349.801 292.666 349.403 292.529 349.087 292.256C348.774 291.979 348.618 291.589 348.618 291.084C348.618 290.43 348.87 289.956 349.375 289.663C349.652 289.504 350.059 289.39 350.596 289.321L351.069 289.263ZM354.761 293.521L354.937 293.53C355.073 293.537 355.203 293.532 355.327 293.516C355.451 293.499 355.555 293.462 355.64 293.403C355.721 293.348 355.796 293.232 355.864 293.057C355.936 292.881 355.965 292.773 355.952 292.734L353.999 287.178H355.547L356.709 291.104L357.808 287.178H359.287L357.461 292.412C357.109 293.421 356.831 294.046 356.626 294.287C356.421 294.531 356.011 294.653 355.396 294.653C355.272 294.653 355.173 294.652 355.098 294.648C355.023 294.648 354.91 294.644 354.761 294.634V293.521Z" fill="#CBD5E0"/>
<path d="M268.229 289.78H270.056L269.157 286.948L268.229 289.78ZM268.322 285.303H270.021L272.57 292.5H270.939L270.476 291.021H267.824L267.326 292.5H265.754L268.322 285.303ZM277.043 289.839C277.043 289.429 276.949 289.066 276.76 288.75C276.574 288.434 276.271 288.276 275.852 288.276C275.347 288.276 275 288.516 274.812 288.994C274.714 289.248 274.665 289.57 274.665 289.961C274.665 290.579 274.829 291.014 275.158 291.265C275.354 291.411 275.585 291.484 275.852 291.484C276.239 291.484 276.534 291.335 276.735 291.035C276.94 290.736 277.043 290.337 277.043 289.839ZM276.252 287.061C276.874 287.061 277.399 287.29 277.829 287.749C278.262 288.208 278.479 288.882 278.479 289.771C278.479 290.708 278.267 291.423 277.844 291.914C277.424 292.406 276.882 292.651 276.218 292.651C275.795 292.651 275.443 292.546 275.163 292.334C275.01 292.217 274.86 292.046 274.714 291.821V294.595H273.337V287.178H274.67V287.964C274.82 287.733 274.979 287.55 275.148 287.417C275.458 287.179 275.826 287.061 276.252 287.061ZM282.38 287.051C282.406 287.051 282.427 287.052 282.443 287.056C282.463 287.056 282.504 287.057 282.565 287.061V288.486C282.478 288.477 282.399 288.47 282.331 288.467C282.263 288.464 282.207 288.462 282.165 288.462C281.605 288.462 281.229 288.644 281.037 289.009C280.93 289.214 280.876 289.53 280.876 289.956V292.5H279.475V287.178H280.803V288.105C281.018 287.751 281.205 287.508 281.364 287.378C281.625 287.16 281.963 287.051 282.38 287.051Z" fill="#CBD5E0"/>
<path d="M196.032 285.303H198.195V292.5H196.794V287.632C196.794 287.492 196.796 287.297 196.799 287.046C196.802 286.792 196.804 286.597 196.804 286.46L195.441 292.5H193.981L192.629 286.46C192.629 286.597 192.631 286.792 192.634 287.046C192.637 287.297 192.639 287.492 192.639 287.632V292.5H191.237V285.303H193.425L194.733 290.962L196.032 285.303ZM202.414 289.912C202.326 289.967 202.237 290.013 202.146 290.049C202.058 290.081 201.936 290.112 201.779 290.142L201.467 290.2C201.174 290.252 200.964 290.316 200.837 290.391C200.622 290.518 200.515 290.715 200.515 290.981C200.515 291.219 200.58 291.392 200.71 291.499C200.843 291.603 201.005 291.655 201.193 291.655C201.493 291.655 201.768 291.567 202.019 291.392C202.272 291.216 202.404 290.895 202.414 290.43V289.912ZM201.569 289.263C201.826 289.23 202.01 289.189 202.121 289.141C202.32 289.056 202.419 288.924 202.419 288.745C202.419 288.527 202.342 288.377 202.189 288.296C202.04 288.211 201.818 288.169 201.525 288.169C201.197 288.169 200.964 288.25 200.827 288.413C200.729 288.534 200.664 288.696 200.632 288.901H199.289C199.318 288.436 199.449 288.053 199.68 287.754C200.048 287.285 200.679 287.051 201.574 287.051C202.157 287.051 202.674 287.166 203.127 287.397C203.579 287.629 203.806 288.065 203.806 288.706V291.147C203.806 291.317 203.809 291.522 203.815 291.763C203.825 291.945 203.853 292.069 203.898 292.134C203.944 292.199 204.012 292.253 204.104 292.295V292.5H202.59C202.548 292.393 202.518 292.292 202.502 292.197C202.486 292.103 202.473 291.995 202.463 291.875C202.271 292.083 202.049 292.261 201.799 292.407C201.499 292.58 201.161 292.666 200.783 292.666C200.301 292.666 199.903 292.529 199.587 292.256C199.274 291.979 199.118 291.589 199.118 291.084C199.118 290.43 199.37 289.956 199.875 289.663C200.152 289.504 200.559 289.39 201.096 289.321L201.569 289.263ZM207.937 287.051C207.963 287.051 207.984 287.052 208 287.056C208.02 287.056 208.06 287.057 208.122 287.061V288.486C208.034 288.477 207.956 288.47 207.888 288.467C207.819 288.464 207.764 288.462 207.722 288.462C207.162 288.462 206.786 288.644 206.594 289.009C206.486 289.214 206.433 289.53 206.433 289.956V292.5H205.031V287.178H206.359V288.105C206.574 287.751 206.761 287.508 206.921 287.378C207.181 287.16 207.52 287.051 207.937 287.051Z" fill="#CBD5E0"/>
<path d="M116.262 285.312H121.364V286.577H117.756V288.232H120.915V289.482H117.756V292.5H116.262V285.312ZM124.362 288.184C124.04 288.184 123.789 288.285 123.61 288.486C123.435 288.688 123.324 288.962 123.278 289.307H125.441C125.419 288.939 125.306 288.66 125.104 288.472C124.906 288.28 124.659 288.184 124.362 288.184ZM124.362 287.036C124.805 287.036 125.204 287.119 125.559 287.285C125.913 287.451 126.206 287.713 126.438 288.071C126.646 288.387 126.781 288.753 126.843 289.17C126.879 289.414 126.893 289.766 126.887 290.225H123.244C123.264 290.758 123.431 291.133 123.747 291.348C123.939 291.481 124.17 291.548 124.44 291.548C124.727 291.548 124.96 291.466 125.139 291.304C125.236 291.216 125.323 291.094 125.397 290.938H126.818C126.783 291.253 126.618 291.574 126.325 291.899C125.869 292.417 125.231 292.676 124.411 292.676C123.734 292.676 123.137 292.458 122.619 292.021C122.102 291.585 121.843 290.876 121.843 289.893C121.843 288.971 122.076 288.265 122.541 287.773C123.01 287.282 123.617 287.036 124.362 287.036ZM130.705 287.061C131.405 287.061 131.952 287.313 132.346 287.817C132.743 288.322 132.941 288.973 132.941 289.771C132.941 290.597 132.746 291.283 132.355 291.826C131.965 292.37 131.42 292.642 130.72 292.642C130.28 292.642 129.927 292.554 129.66 292.378C129.501 292.274 129.328 292.091 129.143 291.831V292.5H127.78V285.312H129.167V287.871C129.343 287.624 129.536 287.435 129.748 287.305C129.999 287.142 130.318 287.061 130.705 287.061ZM130.349 291.494C130.707 291.494 130.985 291.349 131.184 291.06C131.382 290.77 131.481 290.389 131.481 289.917C131.481 289.539 131.433 289.227 131.335 288.979C131.149 288.511 130.808 288.276 130.31 288.276C129.805 288.276 129.458 288.506 129.27 288.965C129.172 289.209 129.123 289.525 129.123 289.912C129.123 290.368 129.224 290.745 129.426 291.045C129.628 291.344 129.935 291.494 130.349 291.494Z" fill="#CBD5E0"/>
<path d="M42.6406 289.771V289.937C42.6536 290.493 42.7139 290.885 42.8213 291.113C42.932 291.338 43.1663 291.45 43.5244 291.45C43.8792 291.45 44.1136 291.326 44.2275 291.079C44.2959 290.933 44.3301 290.685 44.3301 290.337V285.303H45.834V290.312C45.834 290.924 45.7282 291.41 45.5166 291.768C45.1585 292.373 44.5124 292.676 43.5781 292.676C42.6439 292.676 42.0173 292.432 41.6982 291.943C41.3792 291.452 41.2197 290.783 41.2197 289.937V289.771H42.6406ZM50.1504 289.912C50.0625 289.967 49.973 290.013 49.8818 290.049C49.7939 290.081 49.6719 290.112 49.5156 290.142L49.2031 290.2C48.9102 290.252 48.7002 290.316 48.5732 290.391C48.3584 290.518 48.251 290.715 48.251 290.981C48.251 291.219 48.3161 291.392 48.4463 291.499C48.5798 291.603 48.7409 291.655 48.9297 291.655C49.2292 291.655 49.5042 291.567 49.7549 291.392C50.0088 291.216 50.1406 290.895 50.1504 290.43V289.912ZM49.3057 289.263C49.5628 289.23 49.7467 289.189 49.8574 289.141C50.056 289.056 50.1553 288.924 50.1553 288.745C50.1553 288.527 50.0788 288.377 49.9258 288.296C49.776 288.211 49.5547 288.169 49.2617 288.169C48.9329 288.169 48.7002 288.25 48.5635 288.413C48.4658 288.534 48.4007 288.696 48.3682 288.901H47.0254C47.0547 288.436 47.1849 288.053 47.416 287.754C47.7839 287.285 48.4154 287.051 49.3105 287.051C49.8932 287.051 50.4108 287.166 50.8633 287.397C51.3158 287.629 51.542 288.065 51.542 288.706V291.147C51.542 291.317 51.5452 291.522 51.5518 291.763C51.5615 291.945 51.5892 292.069 51.6348 292.134C51.6803 292.199 51.7487 292.253 51.8398 292.295V292.5H50.3262C50.2839 292.393 50.2546 292.292 50.2383 292.197C50.222 292.103 50.209 291.995 50.1992 291.875C50.0072 292.083 49.7858 292.261 49.5352 292.407C49.2357 292.58 48.8971 292.666 48.5195 292.666C48.0378 292.666 47.639 292.529 47.3232 292.256C47.0107 291.979 46.8545 291.589 46.8545 291.084C46.8545 290.43 47.1068 289.956 47.6113 289.663C47.888 289.504 48.2949 289.39 48.832 289.321L49.3057 289.263ZM55.7314 287.051C56.2816 287.051 56.7308 287.196 57.0791 287.485C57.4307 287.772 57.6064 288.249 57.6064 288.916V292.5H56.1807V289.263C56.1807 288.983 56.1432 288.768 56.0684 288.618C55.9316 288.345 55.6712 288.208 55.2871 288.208C54.8151 288.208 54.4912 288.408 54.3154 288.809C54.2243 289.02 54.1787 289.29 54.1787 289.619V292.5H52.792V287.188H54.1348V287.964C54.3138 287.69 54.4831 287.493 54.6426 287.373C54.929 287.158 55.292 287.051 55.7314 287.051Z" fill="#CBD5E0"/>
<path d="M12.7334 257.528C12.7334 258.342 12.8001 258.965 12.9336 259.398C13.0671 259.828 13.3405 260.043 13.7539 260.043C14.1673 260.043 14.4375 259.828 14.5645 259.398C14.6947 258.965 14.7598 258.342 14.7598 257.528C14.7598 256.675 14.6947 256.044 14.5645 255.634C14.4375 255.224 14.1673 255.019 13.7539 255.019C13.3405 255.019 13.0671 255.224 12.9336 255.634C12.8001 256.044 12.7334 256.675 12.7334 257.528ZM13.7539 253.871C14.6556 253.871 15.2871 254.188 15.6484 254.823C16.013 255.458 16.1953 256.36 16.1953 257.528C16.1953 258.697 16.013 259.597 15.6484 260.229C15.2871 260.86 14.6556 261.176 13.7539 261.176C12.8522 261.176 12.2191 260.86 11.8545 260.229C11.4932 259.597 11.3125 258.697 11.3125 257.528C11.3125 256.36 11.4932 255.458 11.8545 254.823C12.2191 254.188 12.8522 253.871 13.7539 253.871Z" fill="#CBD5E0"/>
<path d="M0.693359 206.117V205.17C1.13281 205.15 1.44043 205.121 1.61621 205.082C1.89616 205.02 2.12402 204.896 2.2998 204.711C2.42025 204.584 2.51139 204.415 2.57324 204.203C2.60905 204.076 2.62695 203.982 2.62695 203.92H3.78418V211H2.3584V206.117H0.693359ZM7.2998 207.528C7.2998 208.342 7.36654 208.965 7.5 209.398C7.63346 209.828 7.9069 210.043 8.32031 210.043C8.73372 210.043 9.00391 209.828 9.13086 209.398C9.26107 208.965 9.32617 208.342 9.32617 207.528C9.32617 206.675 9.26107 206.044 9.13086 205.634C9.00391 205.224 8.73372 205.019 8.32031 205.019C7.9069 205.019 7.63346 205.224 7.5 205.634C7.36654 206.044 7.2998 206.675 7.2998 207.528ZM8.32031 203.871C9.22201 203.871 9.85352 204.188 10.2148 204.823C10.5794 205.458 10.7617 206.36 10.7617 207.528C10.7617 208.697 10.5794 209.597 10.2148 210.229C9.85352 210.86 9.22201 211.176 8.32031 211.176C7.41862 211.176 6.78548 210.86 6.4209 210.229C6.05957 209.597 5.87891 208.697 5.87891 207.528C5.87891 206.36 6.05957 205.458 6.4209 204.823C6.78548 204.188 7.41862 203.871 8.32031 203.871ZM12.8662 207.528C12.8662 208.342 12.9329 208.965 13.0664 209.398C13.1999 209.828 13.4733 210.043 13.8867 210.043C14.3001 210.043 14.5703 209.828 14.6973 209.398C14.8275 208.965 14.8926 208.342 14.8926 207.528C14.8926 206.675 14.8275 206.044 14.6973 205.634C14.5703 205.224 14.3001 205.019 13.8867 205.019C13.4733 205.019 13.1999 205.224 13.0664 205.634C12.9329 206.044 12.8662 206.675 12.8662 207.528ZM13.8867 203.871C14.7884 203.871 15.4199 204.188 15.7812 204.823C16.1458 205.458 16.3281 206.36 16.3281 207.528C16.3281 208.697 16.1458 209.597 15.7812 210.229C15.4199 210.86 14.7884 211.176 13.8867 211.176C12.985 211.176 12.3519 210.86 11.9873 210.229C11.626 209.597 11.4453 208.697 11.4453 207.528C11.4453 206.36 11.626 205.458 11.9873 204.823C12.3519 204.188 12.985 203.871 13.8867 203.871Z" fill="#CBD5E0"/>
<path d="M0.3125 161C0.325521 160.492 0.43457 160.028 0.639648 159.608C0.838216 159.136 1.30697 158.637 2.0459 158.109C2.68717 157.65 3.10221 157.322 3.29102 157.123C3.58073 156.814 3.72559 156.475 3.72559 156.107C3.72559 155.808 3.64258 155.559 3.47656 155.36C3.31055 155.162 3.07292 155.062 2.76367 155.062C2.34049 155.062 2.05241 155.22 1.89941 155.536C1.81152 155.718 1.75944 156.008 1.74316 156.405H0.390625C0.413411 155.803 0.522461 155.316 0.717773 154.945C1.08887 154.239 1.74805 153.886 2.69531 153.886C3.44401 153.886 4.03971 154.094 4.48242 154.511C4.92513 154.924 5.14648 155.473 5.14648 156.156C5.14648 156.68 4.99023 157.146 4.67773 157.553C4.47266 157.823 4.13574 158.124 3.66699 158.456L3.11035 158.852C2.76204 159.099 2.52279 159.278 2.39258 159.389C2.26562 159.499 2.1582 159.628 2.07031 159.774H5.16113V161H0.3125ZM7.2998 157.528C7.2998 158.342 7.36654 158.965 7.5 159.398C7.63346 159.828 7.9069 160.043 8.32031 160.043C8.73372 160.043 9.00391 159.828 9.13086 159.398C9.26107 158.965 9.32617 158.342 9.32617 157.528C9.32617 156.675 9.26107 156.044 9.13086 155.634C9.00391 155.224 8.73372 155.019 8.32031 155.019C7.9069 155.019 7.63346 155.224 7.5 155.634C7.36654 156.044 7.2998 156.675 7.2998 157.528ZM8.32031 153.871C9.22201 153.871 9.85352 154.188 10.2148 154.823C10.5794 155.458 10.7617 156.36 10.7617 157.528C10.7617 158.697 10.5794 159.597 10.2148 160.229C9.85352 160.86 9.22201 161.176 8.32031 161.176C7.41862 161.176 6.78548 160.86 6.4209 160.229C6.05957 159.597 5.87891 158.697 5.87891 157.528C5.87891 156.36 6.05957 155.458 6.4209 154.823C6.78548 154.188 7.41862 153.871 8.32031 153.871ZM12.8662 157.528C12.8662 158.342 12.9329 158.965 13.0664 159.398C13.1999 159.828 13.4733 160.043 13.8867 160.043C14.3001 160.043 14.5703 159.828 14.6973 159.398C14.8275 158.965 14.8926 158.342 14.8926 157.528C14.8926 156.675 14.8275 156.044 14.6973 155.634C14.5703 155.224 14.3001 155.019 13.8867 155.019C13.4733 155.019 13.1999 155.224 13.0664 155.634C12.9329 156.044 12.8662 156.675 12.8662 157.528ZM13.8867 153.871C14.7884 153.871 15.4199 154.188 15.7812 154.823C16.1458 155.458 16.3281 156.36 16.3281 157.528C16.3281 158.697 16.1458 159.597 15.7812 160.229C15.4199 160.86 14.7884 161.176 13.8867 161.176C12.985 161.176 12.3519 160.86 11.9873 160.229C11.626 159.597 11.4453 158.697 11.4453 157.528C11.4453 156.36 11.626 155.458 11.9873 154.823C12.3519 154.188 12.985 153.871 13.8867 153.871Z" fill="#CBD5E0"/>
<path d="M1.63086 108.827C1.63086 109.11 1.67643 109.345 1.76758 109.53C1.93685 109.872 2.24447 110.043 2.69043 110.043C2.96387 110.043 3.2015 109.95 3.40332 109.765C3.6084 109.576 3.71094 109.306 3.71094 108.954C3.71094 108.489 3.52214 108.178 3.14453 108.021C2.92969 107.934 2.59115 107.89 2.12891 107.89V106.894C2.58138 106.887 2.89714 106.843 3.07617 106.762C3.38542 106.625 3.54004 106.348 3.54004 105.932C3.54004 105.661 3.46029 105.442 3.30078 105.272C3.14453 105.103 2.92318 105.019 2.63672 105.019C2.30794 105.019 2.06543 105.123 1.90918 105.331C1.75618 105.539 1.68294 105.818 1.68945 106.166H0.390625C0.403646 105.814 0.463867 105.481 0.571289 105.165C0.685221 104.888 0.864258 104.633 1.1084 104.398C1.29069 104.232 1.50716 104.105 1.75781 104.018C2.00846 103.93 2.31608 103.886 2.68066 103.886C3.35775 103.886 3.90299 104.062 4.31641 104.413C4.73307 104.761 4.94141 105.23 4.94141 105.819C4.94141 106.236 4.81771 106.588 4.57031 106.874C4.41406 107.053 4.2513 107.175 4.08203 107.24C4.20898 107.24 4.39128 107.349 4.62891 107.567C4.98372 107.896 5.16113 108.345 5.16113 108.915C5.16113 109.514 4.9528 110.041 4.53613 110.497C4.12272 110.95 3.50911 111.176 2.69531 111.176C1.69271 111.176 0.996094 110.849 0.605469 110.194C0.400391 109.846 0.286458 109.39 0.263672 108.827H1.63086ZM7.2998 107.528C7.2998 108.342 7.36654 108.965 7.5 109.398C7.63346 109.828 7.9069 110.043 8.32031 110.043C8.73372 110.043 9.00391 109.828 9.13086 109.398C9.26107 108.965 9.32617 108.342 9.32617 107.528C9.32617 106.675 9.26107 106.044 9.13086 105.634C9.00391 105.224 8.73372 105.019 8.32031 105.019C7.9069 105.019 7.63346 105.224 7.5 105.634C7.36654 106.044 7.2998 106.675 7.2998 107.528ZM8.32031 103.871C9.22201 103.871 9.85352 104.188 10.2148 104.823C10.5794 105.458 10.7617 106.36 10.7617 107.528C10.7617 108.697 10.5794 109.597 10.2148 110.229C9.85352 110.86 9.22201 111.176 8.32031 111.176C7.41862 111.176 6.78548 110.86 6.4209 110.229C6.05957 109.597 5.87891 108.697 5.87891 107.528C5.87891 106.36 6.05957 105.458 6.4209 104.823C6.78548 104.188 7.41862 103.871 8.32031 103.871ZM12.8662 107.528C12.8662 108.342 12.9329 108.965 13.0664 109.398C13.1999 109.828 13.4733 110.043 13.8867 110.043C14.3001 110.043 14.5703 109.828 14.6973 109.398C14.8275 108.965 14.8926 108.342 14.8926 107.528C14.8926 106.675 14.8275 106.044 14.6973 105.634C14.5703 105.224 14.3001 105.019 13.8867 105.019C13.4733 105.019 13.1999 105.224 13.0664 105.634C12.9329 106.044 12.8662 106.675 12.8662 107.528ZM13.8867 103.871C14.7884 103.871 15.4199 104.188 15.7812 104.823C16.1458 105.458 16.3281 106.36 16.3281 107.528C16.3281 108.697 16.1458 109.597 15.7812 110.229C15.4199 110.86 14.7884 111.176 13.8867 111.176C12.985 111.176 12.3519 110.86 11.9873 110.229C11.626 109.597 11.4453 108.697 11.4453 107.528C11.4453 106.36 11.626 105.458 11.9873 104.823C12.3519 104.188 12.985 103.871 13.8867 103.871Z" fill="#CBD5E0"/>
<path d="M5.22949 59.4766H4.42871V61H3.06641V59.4766H0.263672V58.2607L2.86621 53.9639H4.42871V58.3877H5.22949V59.4766ZM3.06641 58.3877V55.3311L1.29395 58.3877H3.06641ZM7.2998 57.5283C7.2998 58.3421 7.36654 58.9655 7.5 59.3984C7.63346 59.8281 7.9069 60.043 8.32031 60.043C8.73372 60.043 9.00391 59.8281 9.13086 59.3984C9.26107 58.9655 9.32617 58.3421 9.32617 57.5283C9.32617 56.6755 9.26107 56.0439 9.13086 55.6338C9.00391 55.2236 8.73372 55.0186 8.32031 55.0186C7.9069 55.0186 7.63346 55.2236 7.5 55.6338C7.36654 56.0439 7.2998 56.6755 7.2998 57.5283ZM8.32031 53.8711C9.22201 53.8711 9.85352 54.1885 10.2148 54.8232C10.5794 55.458 10.7617 56.3597 10.7617 57.5283C10.7617 58.6969 10.5794 59.597 10.2148 60.2285C9.85352 60.86 9.22201 61.1758 8.32031 61.1758C7.41862 61.1758 6.78548 60.86 6.4209 60.2285C6.05957 59.597 5.87891 58.6969 5.87891 57.5283C5.87891 56.3597 6.05957 55.458 6.4209 54.8232C6.78548 54.1885 7.41862 53.8711 8.32031 53.8711ZM12.8662 57.5283C12.8662 58.3421 12.9329 58.9655 13.0664 59.3984C13.1999 59.8281 13.4733 60.043 13.8867 60.043C14.3001 60.043 14.5703 59.8281 14.6973 59.3984C14.8275 58.9655 14.8926 58.3421 14.8926 57.5283C14.8926 56.6755 14.8275 56.0439 14.6973 55.6338C14.5703 55.2236 14.3001 55.0186 13.8867 55.0186C13.4733 55.0186 13.1999 55.2236 13.0664 55.6338C12.9329 56.0439 12.8662 56.6755 12.8662 57.5283ZM13.8867 53.8711C14.7884 53.8711 15.4199 54.1885 15.7812 54.8232C16.1458 55.458 16.3281 56.3597 16.3281 57.5283C16.3281 58.6969 16.1458 59.597 15.7812 60.2285C15.4199 60.86 14.7884 61.1758 13.8867 61.1758C12.985 61.1758 12.3519 60.86 11.9873 60.2285C11.626 59.597 11.4453 58.6969 11.4453 57.5283C11.4453 56.3597 11.626 55.458 11.9873 54.8232C12.3519 54.1885 12.985 53.8711 13.8867 53.8711Z" fill="#CBD5E0"/>
<path d="M1.65039 9.10547C1.70573 9.4082 1.81152 9.64258 1.96777 9.80859C2.12402 9.97135 2.35189 10.0527 2.65137 10.0527C2.99642 10.0527 3.25846 9.93229 3.4375 9.69141C3.61979 9.44727 3.71094 9.14128 3.71094 8.77344C3.71094 8.41211 3.6263 8.10775 3.45703 7.86035C3.28776 7.6097 3.02409 7.48438 2.66602 7.48438C2.49674 7.48438 2.35026 7.50553 2.22656 7.54785C2.00846 7.62598 1.84408 7.77083 1.7334 7.98242L0.483398 7.92383L0.981445 4.0127H4.88281V5.19434H1.9873L1.7334 6.74219C1.94824 6.60221 2.11589 6.50944 2.23633 6.46387C2.43815 6.389 2.68392 6.35156 2.97363 6.35156C3.55957 6.35156 4.07064 6.5485 4.50684 6.94238C4.94303 7.33626 5.16113 7.90918 5.16113 8.66113C5.16113 9.31543 4.95117 9.89974 4.53125 10.4141C4.11133 10.9284 3.48307 11.1855 2.64648 11.1855C1.97266 11.1855 1.41927 11.0049 0.986328 10.6436C0.553385 10.2822 0.3125 9.76953 0.263672 9.10547H1.65039ZM7.2998 7.52832C7.2998 8.34212 7.36654 8.96549 7.5 9.39844C7.63346 9.82812 7.9069 10.043 8.32031 10.043C8.73372 10.043 9.00391 9.82812 9.13086 9.39844C9.26107 8.96549 9.32617 8.34212 9.32617 7.52832C9.32617 6.67546 9.26107 6.04395 9.13086 5.63379C9.00391 5.22363 8.73372 5.01855 8.32031 5.01855C7.9069 5.01855 7.63346 5.22363 7.5 5.63379C7.36654 6.04395 7.2998 6.67546 7.2998 7.52832ZM8.32031 3.87109C9.22201 3.87109 9.85352 4.18848 10.2148 4.82324C10.5794 5.45801 10.7617 6.3597 10.7617 7.52832C10.7617 8.69694 10.5794 9.59701 10.2148 10.2285C9.85352 10.86 9.22201 11.1758 8.32031 11.1758C7.41862 11.1758 6.78548 10.86 6.4209 10.2285C6.05957 9.59701 5.87891 8.69694 5.87891 7.52832C5.87891 6.3597 6.05957 5.45801 6.4209 4.82324C6.78548 4.18848 7.41862 3.87109 8.32031 3.87109ZM12.8662 7.52832C12.8662 8.34212 12.9329 8.96549 13.0664 9.39844C13.1999 9.82812 13.4733 10.043 13.8867 10.043C14.3001 10.043 14.5703 9.82812 14.6973 9.39844C14.8275 8.96549 14.8926 8.34212 14.8926 7.52832C14.8926 6.67546 14.8275 6.04395 14.6973 5.63379C14.5703 5.22363 14.3001 5.01855 13.8867 5.01855C13.4733 5.01855 13.1999 5.22363 13.0664 5.63379C12.9329 6.04395 12.8662 6.67546 12.8662 7.52832ZM13.8867 3.87109C14.7884 3.87109 15.4199 4.18848 15.7812 4.82324C16.1458 5.45801 16.3281 6.3597 16.3281 7.52832C16.3281 8.69694 16.1458 9.59701 15.7812 10.2285C15.4199 10.86 14.7884 11.1758 13.8867 11.1758C12.985 11.1758 12.3519 10.86 11.9873 10.2285C11.626 9.59701 11.4453 8.69694 11.4453 7.52832C11.4453 6.3597 11.626 5.45801 11.9873 4.82324C12.3519 4.18848 12.985 3.87109 13.8867 3.87109Z" fill="#CBD5E0"/>
<line x1="41.5" y1="257" x2="880.5" y2="257" stroke="#E2E8F0" stroke-linecap="round" stroke-linejoin="round" stroke-dasharray="3.5 3.5"/>
<line x1="41.5" y1="207" x2="880.5" y2="207" stroke="#E2E8F0" stroke-linecap="round" stroke-linejoin="round" stroke-dasharray="3.5 3.5"/>
<line x1="41.5" y1="157" x2="880.5" y2="157" stroke="#E2E8F0" stroke-linecap="round" stroke-linejoin="round" stroke-dasharray="3.5 3.5"/>
<line x1="41.5" y1="107" x2="880.5" y2="107" stroke="#E2E8F0" stroke-linecap="round" stroke-linejoin="round" stroke-dasharray="3.5 3.5"/>
<line x1="41.5" y1="57" x2="880.5" y2="57.0001" stroke="#E2E8F0" stroke-linecap="round" stroke-linejoin="round" stroke-dasharray="3.5 3.5"/>
<line x1="41.5" y1="7" x2="880.5" y2="7.00007" stroke="#E2E8F0" stroke-linecap="round" stroke-linejoin="round" stroke-dasharray="3.5 3.5"/>
<path d="M766.203 177.045C809.811 163.948 860.904 182.503 881 193.417V257.25H41V7.5C83.2009 14.9922 110.33 76.5946 117.112 115.72C122.644 147.632 122.89 170.386 152.28 177.045C181.827 183.74 216.859 162.436 246.5 133.577C270.213 110.49 305.615 123.957 320.352 133.577C346.476 150.319 389.51 161.672 424.074 144.579C467.28 123.213 491.144 129.317 545.653 144.579C600.163 159.841 594.636 169.553 640.103 193.417C685.569 217.281 711.694 193.417 766.203 177.045Z" fill="url(#paint0_linear_10_239)"/>
<path d="M881 193.417C860.904 182.503 809.811 163.948 766.203 177.045C711.694 193.417 685.569 217.281 640.103 193.417C594.636 169.553 600.163 159.841 545.653 144.579C491.144 129.317 467.28 123.213 424.074 144.579C389.51 161.672 346.476 150.319 320.352 133.577C305.615 123.957 270.213 110.49 246.5 133.577C216.859 162.436 181.827 183.74 152.28 177.045C122.89 170.386 122.644 147.632 117.112 115.72C110.33 76.5946 83.201 14.9922 41 7.5" stroke="#2D3748" stroke-width="3"/>
<path d="M154.914 149.957C111.642 136.869 60.9412 155.41 41 166.317V257H880V42.4074C838.123 49.8941 802.55 47.9526 795.82 87.0498C790.331 118.938 790.087 141.675 760.923 148.33C731.603 155.02 714.559 115.887 685.146 87.0498C661.615 63.9798 621.986 94 607.362 103.613C581.439 120.342 522.507 83.8408 496.967 55.148C460.5 14.1781 412.543 10.4308 376.323 55.148C340.104 99.8652 304.178 63.2034 259.061 87.0498C213.944 110.896 209.005 166.317 154.914 149.957Z" fill="url(#paint1_linear_10_239)"/>
<path d="M41 166.5C60.9412 155.579 111.642 137.015 154.914 150.119C209.005 166.5 213.944 111.009 259.061 87.1318C304.178 63.2548 340.104 99.9636 376.323 55.1892C412.543 10.4147 460.5 14.1668 496.967 55.1892C522.507 83.9187 581.439 120.467 607.362 103.716C621.986 94.0909 661.615 64.0322 685.146 87.1318C714.559 116.006 731.603 155.189 760.923 148.49C790.087 141.827 790.331 119.06 795.82 87.1318C802.55 47.9846 838.123 49.9285 880 42.4323" stroke="#4FD1C5" stroke-width="3"/>
<defs>
<linearGradient id="paint0_linear_10_239" x1="461" y1="7.5" x2="461" y2="257.25" gradientUnits="userSpaceOnUse">
<stop stop-color="#2D3748" stop-opacity="0.36"/>
<stop offset="1" stop-color="#2D3748" stop-opacity="0"/>
</linearGradient>
<linearGradient id="paint1_linear_10_239" x1="460.5" y1="23" x2="460.5" y2="257" gradientUnits="userSpaceOnUse">
<stop stop-color="#4FD1C5" stop-opacity="0.54"/>
<stop offset="1" stop-color="#4FD1C5" stop-opacity="0"/>
</linearGradient>
</defs>
</svg>
