<svg width="15" height="15" viewBox="0 0 15 15" fill="none" xmlns="http://www.w3.org/2000/svg">
<path d="M13.3802 12.3465L10.6237 9.58996C11.2873 8.70647 11.6456 7.63108 11.6444 6.5261C11.6444 3.70364 9.34807 1.40735 6.52561 1.40735C3.70315 1.40735 1.40686 3.70364 1.40686 6.5261C1.40686 9.34856 3.70315 11.6448 6.52561 11.6448C7.63059 11.6461 8.70598 11.2878 9.58947 10.6241L12.346 13.3807C12.4856 13.5054 12.6675 13.572 12.8546 13.5668C13.0417 13.5615 13.2197 13.4849 13.352 13.3525C13.4844 13.2202 13.561 13.0422 13.5663 12.8551C13.5715 12.668 13.5049 12.486 13.3802 12.3465ZM2.86936 6.5261C2.86936 5.80296 3.08379 5.09606 3.48555 4.49479C3.8873 3.89353 4.45833 3.4249 5.12642 3.14816C5.79451 2.87143 6.52966 2.79902 7.23891 2.9401C7.94815 3.08118 8.59963 3.4294 9.11097 3.94074C9.6223 4.45207 9.97053 5.10355 10.1116 5.8128C10.2527 6.52204 10.1803 7.25719 9.90354 7.92528C9.62681 8.59337 9.15818 9.1644 8.55691 9.56616C7.95564 9.96791 7.24875 10.1823 6.52561 10.1823C5.55627 10.1812 4.62696 9.7956 3.94153 9.11017C3.25611 8.42474 2.87052 7.49544 2.86936 6.5261Z" fill="#2D3748"/>
</svg>
