<svg width="12" height="12" viewBox="0 0 12 12" fill="none" xmlns="http://www.w3.org/2000/svg">
<path d="M5.99991 4.12512C5.62907 4.12512 5.26656 4.23509 4.95822 4.44112C4.64987 4.64714 4.40955 4.93998 4.26764 5.28259C4.12572 5.6252 4.08859 6.0022 4.16094 6.36591C4.23328 6.72963 4.41186 7.06372 4.67408 7.32595C4.93631 7.58817 5.2704 7.76675 5.63411 7.83909C5.99783 7.91144 6.37483 7.87431 6.71744 7.73239C7.06005 7.59048 7.35289 7.35016 7.55891 7.04181C7.76494 6.73347 7.87491 6.37096 7.87491 6.00012C7.87342 5.5033 7.6754 5.02724 7.32409 4.67593C6.97278 4.32463 6.49673 4.1266 5.99991 4.12512ZM10.048 6.00012C10.0471 6.17532 10.0342 6.35025 10.0096 6.52371L11.1508 7.41715C11.2005 7.45819 11.234 7.51557 11.2452 7.57903C11.2565 7.64248 11.2449 7.70789 11.2124 7.76356L10.1329 9.62731C10.1001 9.68248 10.0488 9.72431 9.98822 9.74545C9.9276 9.76658 9.86148 9.76566 9.80147 9.74285L8.45967 9.20379C8.18027 9.41894 7.87451 9.5975 7.54983 9.73512L7.34921 11.1596C7.33798 11.2235 7.30494 11.2814 7.25573 11.3235C7.20653 11.3657 7.14422 11.3894 7.07944 11.3907H4.92038C4.85678 11.3895 4.79548 11.3667 4.74649 11.3262C4.69749 11.2856 4.66369 11.2296 4.65061 11.1674L4.44999 9.74285C4.12441 9.60683 3.81843 9.42799 3.54014 9.21106L2.19835 9.75012C2.13837 9.77295 2.07226 9.7739 2.01165 9.75281C1.95103 9.73172 1.8998 9.68994 1.86694 9.63481L0.787411 7.77129C0.754917 7.71563 0.743276 7.65022 0.754568 7.58676C0.76586 7.5233 0.79935 7.46593 0.849052 7.42489L1.99022 6.53145C1.96588 6.35536 1.95304 6.17788 1.95179 6.00012C1.95276 5.82492 1.9656 5.64999 1.99022 5.47653L0.849052 4.58309C0.79935 4.54205 0.76586 4.48467 0.754568 4.42121C0.743276 4.35776 0.754917 4.29235 0.787411 4.23668L1.86694 2.37293C1.89976 2.31776 1.95098 2.27593 2.0116 2.25479C2.07221 2.23366 2.13834 2.23458 2.19835 2.25739L3.54014 2.79645C3.81955 2.5813 4.12531 2.40274 4.44999 2.26512L4.65061 0.840591C4.66184 0.776782 4.69488 0.718853 4.74408 0.676703C4.79329 0.634553 4.8556 0.610798 4.92038 0.609497H7.07944C7.14304 0.610735 7.20434 0.633495 7.25333 0.674062C7.30233 0.714629 7.33612 0.770606 7.34921 0.832856L7.54983 2.25739C7.87582 2.39332 8.18219 2.57216 8.46084 2.78918L9.80147 2.25012C9.86145 2.22729 9.92756 2.22634 9.98817 2.24743C10.0488 2.26852 10.1 2.3103 10.1329 2.36543L11.2124 4.22918C11.2449 4.28485 11.2565 4.35026 11.2452 4.41372C11.234 4.47717 11.2005 4.53455 11.1508 4.57559L10.0096 5.46903C10.0339 5.64504 10.0468 5.82244 10.048 6.00012Z" fill="#718096"/>
</svg>
