<svg width="15" height="15" viewBox="0 0 15 15" fill="none" xmlns="http://www.w3.org/2000/svg">
<g clip-path="url(#clip0_1502_403)">
<path d="M13.9934 1.12154C13.988 1.09562 13.9754 1.07178 13.957 1.05278C13.9385 1.03379 13.9151 1.02045 13.8894 1.01431C12.1734 0.594778 8.20869 2.0898 6.06065 4.23696C5.67752 4.61699 5.32825 5.02968 5.0168 5.47036C4.3544 5.41177 3.69199 5.46069 3.12744 5.70679C1.53457 6.40786 1.0708 8.23716 0.941604 9.02407C0.934276 9.06714 0.93704 9.11133 0.94968 9.15315C0.962319 9.19497 0.984489 9.23329 1.01445 9.26509C1.0444 9.29689 1.08133 9.32131 1.12232 9.33643C1.16331 9.35154 1.20725 9.35694 1.25069 9.3522L3.8086 9.07007C3.81042 9.26292 3.82206 9.45555 3.84346 9.64721C3.85633 9.78032 3.91541 9.9047 4.01045 9.99878L5.00098 10.987C5.09514 11.0819 5.21948 11.1409 5.35254 11.154C5.54314 11.1753 5.73469 11.1869 5.92647 11.1888L5.6458 13.7435C5.64112 13.7869 5.64656 13.8308 5.6617 13.8718C5.67683 13.9128 5.70125 13.9497 5.73304 13.9796C5.76483 14.0095 5.80312 14.0317 5.84491 14.0444C5.88671 14.057 5.93087 14.0598 5.97393 14.0526C6.75938 13.9266 8.59189 13.4628 9.28887 11.87C9.53496 11.3054 9.58535 10.6462 9.52851 9.98706C9.97026 9.67558 10.384 9.32622 10.7651 8.94292C12.9199 6.79897 14.4064 2.92271 13.9934 1.12154ZM8.61533 6.3853C8.41857 6.18867 8.28455 5.9381 8.23021 5.66529C8.17588 5.39248 8.20367 5.10968 8.31008 4.85267C8.41649 4.59566 8.59673 4.37598 8.82801 4.22142C9.05928 4.06686 9.33121 3.98436 9.60937 3.98436C9.88754 3.98436 10.1595 4.06686 10.3907 4.22142C10.622 4.37598 10.8023 4.59566 10.9087 4.85267C11.0151 5.10968 11.0429 5.39248 10.9885 5.66529C10.9342 5.9381 10.8002 6.18867 10.6034 6.3853C10.4729 6.51596 10.318 6.61962 10.1474 6.69034C9.97686 6.76106 9.79402 6.79746 9.60937 6.79746C9.42473 6.79746 9.24189 6.76106 9.07132 6.69034C8.90075 6.61962 8.7458 6.51596 8.61533 6.3853Z" fill="#4FD1C5"/>
<path d="M4.93362 11.7028C4.77307 11.8636 4.51555 11.9263 4.20559 11.9799C3.5092 12.0986 2.89426 11.4968 3.01936 10.7928C3.06711 10.5259 3.20832 10.1518 3.29621 10.0639C3.31542 10.0451 3.32821 10.0207 3.33276 9.99414C3.3373 9.96762 3.33338 9.94034 3.32154 9.91618C3.3097 9.89202 3.29055 9.8722 3.26681 9.85954C3.24307 9.84688 3.21594 9.84202 3.18928 9.84566C2.79985 9.8933 2.43756 10.0699 2.16008 10.3472C1.47131 11.0366 1.40627 13.5945 1.40627 13.5945C1.40627 13.5945 3.96565 13.5294 4.65442 12.8401C4.93264 12.5628 5.10942 12.2 5.15627 11.81C5.16711 11.6875 5.01799 11.6146 4.93362 11.7028Z" fill="#4FD1C5"/>
</g>
<defs>
<clipPath id="clip0_1502_403">
<rect width="15" height="15" fill="white"/>
</clipPath>
</defs>
</svg>
