<svg width="15" height="15" viewBox="0 0 15 15" fill="none" xmlns="http://www.w3.org/2000/svg">
<g clip-path="url(#clip0_1502_424)">
<path d="M3.04684 14.5316H2.10934C1.92286 14.5316 1.74402 14.4575 1.61216 14.3257C1.4803 14.1938 1.40622 14.015 1.40622 13.8285V9.60974C1.40622 9.42326 1.4803 9.24442 1.61216 9.11256C1.74402 8.9807 1.92286 8.90662 2.10934 8.90662H3.04684C3.23332 8.90662 3.41216 8.9807 3.54403 9.11256C3.67589 9.24442 3.74997 9.42326 3.74997 9.60974V13.8285C3.74997 14.015 3.67589 14.1938 3.54403 14.3257C3.41216 14.4575 3.23332 14.5316 3.04684 14.5316Z" fill="white"/>
<path d="M9.60937 14.5308H8.67187C8.48539 14.5308 8.30655 14.4567 8.17469 14.3249C8.04283 14.193 7.96875 14.0142 7.96875 13.8277V6.79645C7.96875 6.60997 8.04283 6.43112 8.17469 6.29926C8.30655 6.1674 8.48539 6.09332 8.67187 6.09332H9.60937C9.79585 6.09332 9.97469 6.1674 10.1066 6.29926C10.2384 6.43112 10.3125 6.60997 10.3125 6.79645V13.8277C10.3125 14.0142 10.2384 14.193 10.1066 14.3249C9.97469 14.4567 9.79585 14.5308 9.60937 14.5308Z" fill="white"/>
<path d="M12.8906 14.5311H11.9531C11.7666 14.5311 11.5878 14.457 11.4559 14.3252C11.3241 14.1933 11.25 14.0145 11.25 13.828V3.5155C11.25 3.32902 11.3241 3.15018 11.4559 3.01832C11.5878 2.88646 11.7666 2.81238 11.9531 2.81238H12.8906C13.0771 2.81238 13.2559 2.88646 13.3878 3.01832C13.5196 3.15018 13.5937 3.32902 13.5937 3.5155V13.828C13.5937 14.0145 13.5196 14.1933 13.3878 14.3252C13.2559 14.457 13.0771 14.5311 12.8906 14.5311Z" fill="white"/>
<path d="M6.32811 14.531H5.39061C5.20413 14.531 5.02528 14.4569 4.89342 14.3251C4.76156 14.1932 4.68748 14.0144 4.68748 13.8279V1.17163C4.68748 0.98515 4.76156 0.806308 4.89342 0.674446C5.02528 0.542585 5.20413 0.468506 5.39061 0.468506H6.32811C6.51459 0.468506 6.69343 0.542585 6.82529 0.674446C6.95715 0.806308 7.03123 0.98515 7.03123 1.17163V13.8279C7.03123 14.0144 6.95715 14.1932 6.82529 14.3251C6.69343 14.4569 6.51459 14.531 6.32811 14.531Z" fill="white"/>
</g>
<defs>
<clipPath id="clip0_1502_424">
<rect width="15" height="15" fill="white"/>
</clipPath>
</defs>
</svg>
