<svg width="23" height="23" viewBox="0 0 23 23" fill="none" xmlns="http://www.w3.org/2000/svg">
<path fill-rule="evenodd" clip-rule="evenodd" d="M16.864 2.74285C20.7917 6.46981 21.0348 12.6476 17.4121 16.6716L21.9172 21.1619C22.1157 21.3673 22.1128 21.6939 21.9108 21.8959C21.7089 22.0979 21.3823 22.1007 21.1768 21.9023L16.6716 17.4121C12.6476 21.0348 6.46981 20.7917 2.74285 16.864C-0.984114 12.9363 -0.903063 6.75424 2.92559 2.92559C6.75424 -0.903063 12.9363 -0.984114 16.864 2.74285ZM1.12582 10.028C1.12582 14.9443 5.1113 18.9298 10.0276 18.9298C14.9416 18.924 18.9237 14.9419 18.9295 10.028C18.9295 5.11162 14.944 1.12614 10.0276 1.12614C5.1113 1.12614 1.12582 5.11162 1.12582 10.028Z" fill="#333333"/>
</svg>
