<svg width="20" height="20" viewBox="0 0 20 20" fill="none" xmlns="http://www.w3.org/2000/svg">
<g clip-path="url(#clip0_29_1171)">
<path d="M3.54167 0H16.4583C18.4167 0 20 1.58333 20 3.54167V15.9583C20 17.9167 18.4167 19.5 16.4583 19.5H3.54167C1.58333 19.5 0 17.9167 0 15.9583V3.54167C0 1.58333 1.58333 0 3.54167 0Z" fill="#470137"/>
<path d="M10.5166 5.12421L8.01657 9.24921L10.6832 13.6242C10.6999 13.6575 10.7082 13.6909 10.6999 13.7242C10.6916 13.7575 10.6582 13.7325 10.6082 13.7409H8.6999C8.56657 13.7409 8.4749 13.7325 8.41657 13.6492C8.24157 13.2992 8.05824 12.9575 7.88324 12.6075C7.70824 12.2659 7.51657 11.9159 7.31657 11.5575C7.11657 11.1992 6.91657 10.8409 6.71657 10.4742H6.6999C6.5249 10.8325 6.33324 11.1909 6.14157 11.5492C5.9499 11.9075 5.75824 12.2659 5.5749 12.6159C5.38324 12.9659 5.19157 13.3242 4.9999 13.6659C4.96657 13.7492 4.8999 13.7575 4.80824 13.7575H2.9749C2.94157 13.7575 2.91657 13.7742 2.91657 13.7325C2.90824 13.6992 2.91657 13.6659 2.93324 13.6409L5.5249 9.39087L2.9999 5.11587C2.9749 5.08254 2.96657 5.04921 2.98324 5.03254C2.9999 5.00754 3.03324 4.99921 3.06657 4.99921H4.95824C4.9999 4.99921 5.04157 5.00754 5.0749 5.01587C5.10824 5.03254 5.13324 5.05754 5.15824 5.09087C5.31657 5.44921 5.4999 5.80754 5.69157 6.16587C5.89157 6.52421 6.08324 6.87421 6.29157 7.22421C6.49157 7.57421 6.6749 7.92421 6.8499 8.28254H6.86657C7.04157 7.91587 7.2249 7.55754 7.40824 7.20754C7.59157 6.85754 7.78324 6.50754 7.9749 6.15754C8.16657 5.80754 8.3499 5.44921 8.53324 5.10754C8.54157 5.07421 8.55824 5.04087 8.58324 5.02421C8.61657 5.00754 8.6499 4.99921 8.69157 5.00754H10.4499C10.4916 4.99921 10.5332 5.02421 10.5416 5.06587C10.5499 5.07421 10.5332 5.10754 10.5166 5.12421Z" fill="#FF61F6"/>
<path d="M14.3665 13.9166C13.7498 13.9249 13.1331 13.7999 12.5748 13.5416C12.0498 13.2999 11.6165 12.8999 11.3165 12.4083C11.0081 11.8999 10.8581 11.2666 10.8581 10.5083C10.8498 9.89161 11.0081 9.28328 11.3165 8.74995C11.6331 8.20828 12.0915 7.75828 12.6415 7.45828C13.2248 7.13328 13.9248 6.97495 14.7498 6.97495C14.7915 6.97495 14.8498 6.97495 14.9248 6.98328C14.9998 6.99161 15.0831 6.99161 15.1831 6.99995V4.36661C15.1831 4.30828 15.2081 4.27495 15.2665 4.27495H16.9581C16.9998 4.26661 17.0331 4.29995 17.0415 4.33328C17.0415 4.34161 17.0415 4.34995 17.0415 4.34995V12.2833C17.0415 12.4333 17.0498 12.5999 17.0581 12.7833C17.0748 12.9583 17.0831 13.1249 17.0915 13.2666C17.0915 13.3249 17.0665 13.3749 17.0081 13.3999C16.5748 13.5833 16.1165 13.7166 15.6498 13.7999C15.2248 13.8749 14.7998 13.9166 14.3665 13.9166ZM15.1831 12.2499V8.58328C15.1081 8.56661 15.0331 8.54995 14.9581 8.54161C14.8665 8.53328 14.7748 8.52495 14.6831 8.52495C14.3581 8.52495 14.0331 8.59161 13.7415 8.74161C13.4581 8.88328 13.2165 9.09161 13.0331 9.35828C12.8498 9.62495 12.7581 9.98328 12.7581 10.4166C12.7498 10.7083 12.7998 10.9999 12.8998 11.2749C12.9831 11.4999 13.1081 11.6999 13.2748 11.8666C13.4331 12.0166 13.6248 12.1333 13.8415 12.1999C14.0665 12.2749 14.2998 12.3083 14.5331 12.3083C14.6581 12.3083 14.7748 12.2999 14.8831 12.2916C14.9915 12.2999 15.0831 12.2833 15.1831 12.2499Z" fill="#FF61F6"/>
</g>
<defs>
<clipPath id="clip0_29_1171">
<rect width="20" height="19.5" fill="white"/>
</clipPath>
</defs>
</svg>
