<svg width="20" height="21" viewBox="0 0 20 21" fill="none" xmlns="http://www.w3.org/2000/svg">
<path fill-rule="evenodd" clip-rule="evenodd" d="M7.33262 0C6.22705 0.000835882 5.3323 0.918634 5.33312 2.04958C5.3323 3.18053 6.22787 4.09833 7.33344 4.09916H9.33377V2.05042C9.33459 0.91947 8.43901 0.00167176 7.33262 0C7.33344 0 7.33344 0 7.33262 0V0ZM7.33262 5.46667H2.00005C0.894482 5.4675 -0.00108955 6.3853 -0.000272425 7.51625C-0.00190668 8.6472 0.893664 9.56499 1.99924 9.56667H7.33262C8.4382 9.56583 9.33377 8.64803 9.33295 7.51708C9.33377 6.3853 8.4382 5.4675 7.33262 5.46667Z" fill="#36C5F0"/>
<path fill-rule="evenodd" clip-rule="evenodd" d="M20 7.51624C20.0008 6.38529 19.1052 5.46749 17.9996 5.46666C16.8941 5.46749 15.9985 6.38529 15.9993 7.51624V9.56666H17.9996C19.1052 9.56582 20.0008 8.64803 20 7.51624ZM14.6666 7.51624V2.04957C14.6674 0.919462 13.7726 0.00166413 12.6671 -7.62939e-06C11.5615 0.000828252 10.6659 0.918626 10.6667 2.04957V7.51624C10.6651 8.64719 11.5607 9.56499 12.6662 9.56666C13.7718 9.56582 14.6674 8.64803 14.6666 7.51624Z" fill="#2EB67D"/>
<path fill-rule="evenodd" clip-rule="evenodd" d="M12.6662 20.5C13.7718 20.4992 14.6673 19.5814 14.6665 18.4504C14.6673 17.3195 13.7718 16.4017 12.6662 16.4008H10.6659V18.4504C10.665 19.5805 11.5606 20.4983 12.6662 20.5ZM12.6662 15.0325H17.9996C19.1052 15.0317 20.0007 14.1139 19.9999 12.9829C20.0015 11.852 19.106 10.9342 18.0004 10.9325H12.667C11.5614 10.9333 10.6659 11.8511 10.6667 12.9821C10.6659 14.1139 11.5606 15.0317 12.6662 15.0325Z" fill="#ECB22E"/>
<path fill-rule="evenodd" clip-rule="evenodd" d="M-6.04764e-05 12.9829C-0.000877603 14.1138 0.894693 15.0316 2.00027 15.0325C3.10584 15.0316 4.00141 14.1138 4.00059 12.9829V10.9333H2.00027C0.894693 10.9341 -0.000877603 11.8519 -6.04764e-05 12.9829ZM5.33333 12.9829V18.4495C5.33169 19.5805 6.22726 20.4983 7.33284 20.5C8.43841 20.4991 9.33398 19.5813 9.33316 18.4504V12.9845C9.3348 11.8536 8.43923 10.9358 7.33365 10.9341C6.22726 10.9341 5.33251 11.8519 5.33333 12.9829C5.33333 12.9837 5.33333 12.9829 5.33333 12.9829Z" fill="#E01E5A"/>
</svg>
