<svg width="218" height="170" viewBox="0 0 218 170" fill="none" xmlns="http://www.w3.org/2000/svg">
<rect width="218" height="169.5" rx="15" fill="#4FD1C5"/>
<mask id="mask0_1502_373" style="mask-type:alpha" maskUnits="userSpaceOnUse" x="0" y="0" width="218" height="170">
<rect width="218" height="169.5" rx="15" fill="#4FD1C5"/>
</mask>
<g mask="url(#mask0_1502_373)">
<g opacity="0.2">
<circle cx="220.25" cy="169.25" r="177.25" stroke="white"/>
<circle cx="220.25" cy="169.25" r="153.219" stroke="white"/>
<circle cx="220.25" cy="169.25" r="125.872" stroke="white"/>
<circle cx="220.25" cy="169.25" r="98.5262" stroke="white"/>
<circle cx="220.25" cy="169.25" r="72.0087" stroke="white"/>
<circle cx="220.25" cy="169.25" r="47.9773" stroke="white"/>
<circle cx="220.25" cy="169.25" r="28.75" stroke="white"/>
</g>
</g>
<rect x="16.0001" y="118.5" width="186" height="35" rx="12" fill="white"/>
<g clip-path="url(#clip0_1502_373)">
<g clip-path="url(#clip1_1502_373)">
<path d="M67.4961 133.55V138.247H68.8828C69.5924 138.247 70.0872 137.897 70.3672 137.197C70.5202 136.813 70.5967 136.356 70.5967 135.825C70.5967 135.093 70.4811 134.531 70.25 134.141C70.0221 133.747 69.5664 133.55 68.8828 133.55H67.4961ZM69.1367 132.3C69.5827 132.306 69.9538 132.358 70.25 132.456C70.7546 132.622 71.1631 132.926 71.4756 133.369C71.7262 133.727 71.8971 134.115 71.9883 134.531C72.0794 134.948 72.125 135.345 72.125 135.723C72.125 136.68 71.9329 137.49 71.5488 138.154C71.028 139.05 70.224 139.497 69.1367 139.497H66.0361V132.3H69.1367ZM76.4463 138.423C77.042 138.423 77.514 138.203 77.8623 137.764C78.2139 137.324 78.3896 136.699 78.3896 135.889C78.3896 135.081 78.2139 134.458 77.8623 134.019C77.514 133.576 77.042 133.355 76.4463 133.355C75.8506 133.355 75.3753 133.574 75.0205 134.014C74.6657 134.453 74.4883 135.078 74.4883 135.889C74.4883 136.699 74.6657 137.324 75.0205 137.764C75.3753 138.203 75.8506 138.423 76.4463 138.423ZM79.8936 135.889C79.8936 137.181 79.5306 138.171 78.8047 138.857C78.2611 139.417 77.4749 139.697 76.4463 139.697C75.4176 139.697 74.6315 139.417 74.0879 138.857C73.3587 138.171 72.9941 137.181 72.9941 135.889C72.9941 134.57 73.3587 133.581 74.0879 132.92C74.6315 132.36 75.4176 132.08 76.4463 132.08C77.4749 132.08 78.2611 132.36 78.8047 132.92C79.5306 133.581 79.8936 134.57 79.8936 135.889ZM80.7334 135.957C80.7334 134.701 81.0703 133.732 81.7441 133.052C82.3301 132.459 83.0755 132.163 83.9805 132.163C85.1914 132.163 86.0768 132.56 86.6367 133.355C86.946 133.801 87.112 134.248 87.1348 134.697H85.6309C85.5332 134.352 85.4079 134.092 85.2549 133.916C84.9814 133.604 84.5762 133.447 84.0391 133.447C83.4922 133.447 83.0609 133.669 82.7451 134.111C82.4294 134.551 82.2715 135.174 82.2715 135.982C82.2715 136.789 82.4375 137.394 82.7695 137.798C83.1048 138.198 83.5296 138.398 84.0439 138.398C84.5713 138.398 84.9733 138.226 85.25 137.881C85.403 137.695 85.5299 137.417 85.6309 137.046H87.1201C86.9899 137.83 86.6562 138.468 86.1191 138.96C85.5853 139.452 84.9001 139.697 84.0635 139.697C83.0283 139.697 82.2145 139.365 81.6221 138.701C81.0296 138.034 80.7334 137.119 80.7334 135.957ZM88.2725 132.3H89.8008V136.724C89.8008 137.218 89.8594 137.58 89.9766 137.808C90.1589 138.211 90.556 138.413 91.168 138.413C91.7767 138.413 92.1722 138.211 92.3545 137.808C92.4717 137.58 92.5303 137.218 92.5303 136.724V132.3H94.0586V136.724C94.0586 137.489 93.9398 138.084 93.7021 138.511C93.2594 139.292 92.4147 139.683 91.168 139.683C89.9212 139.683 89.0749 139.292 88.6289 138.511C88.3913 138.084 88.2725 137.489 88.2725 136.724V132.3ZM100.27 132.3H102.433V139.497H101.031V134.629C101.031 134.489 101.033 134.294 101.036 134.043C101.039 133.789 101.041 133.594 101.041 133.457L99.6787 139.497H98.2188L96.8662 133.457C96.8662 133.594 96.8678 133.789 96.8711 134.043C96.8743 134.294 96.876 134.489 96.876 134.629V139.497H95.4746V132.3H97.6621L98.9707 137.959L100.27 132.3ZM109.151 133.574H105.343V135.103H108.839V136.353H105.343V138.203H109.327V139.497H103.873V132.3H109.151V133.574ZM110.475 132.3H112.052L114.918 137.324V132.3H116.319V139.497H114.815L111.876 134.385V139.497H110.475V132.3ZM122.955 132.3V133.574H120.802V139.497H119.288V133.574H117.125V132.3H122.955ZM125.064 136.777H126.891L125.992 133.945L125.064 136.777ZM125.157 132.3H126.856L129.405 139.497H127.774L127.311 138.018H124.659L124.161 139.497H122.589L125.157 132.3ZM134.811 132.3V133.574H132.657V139.497H131.144V133.574H128.98V132.3H134.811ZM137.071 139.497H135.577V132.3H137.071V139.497ZM141.661 138.423C142.257 138.423 142.729 138.203 143.077 137.764C143.429 137.324 143.604 136.699 143.604 135.889C143.604 135.081 143.429 134.458 143.077 134.019C142.729 133.576 142.257 133.355 141.661 133.355C141.065 133.355 140.59 133.574 140.235 134.014C139.881 134.453 139.703 135.078 139.703 135.889C139.703 136.699 139.881 137.324 140.235 137.764C140.59 138.203 141.065 138.423 141.661 138.423ZM145.108 135.889C145.108 137.181 144.745 138.171 144.02 138.857C143.476 139.417 142.69 139.697 141.661 139.697C140.632 139.697 139.846 139.417 139.303 138.857C138.574 138.171 138.209 137.181 138.209 135.889C138.209 134.57 138.574 133.581 139.303 132.92C139.846 132.36 140.632 132.08 141.661 132.08C142.69 132.08 143.476 132.36 144.02 132.92C144.745 133.581 145.108 134.57 145.108 135.889ZM146.236 132.3H147.813L150.68 137.324V132.3H152.081V139.497H150.577L147.638 134.385V139.497H146.236V132.3Z" fill="#2D3748"/>
</g>
<g clip-path="url(#clip2_1502_373)">
<rect x="108.997" y="147.997" width="0.0057526" height="0.0057526" fill="#C4C4C4"/>
</g>
</g>
<path d="M17.5254 96.3926H21.3984C22.1641 96.3926 22.7813 96.6094 23.25 97.043C23.7188 97.4727 23.9531 98.0781 23.9531 98.8594C23.9531 99.5312 23.7441 100.117 23.3262 100.617C22.9082 101.113 22.2656 101.361 21.3984 101.361H18.6914V105H17.5254V96.3926ZM22.7754 98.8652C22.7754 98.2324 22.541 97.8027 22.0723 97.5762C21.8145 97.4551 21.4609 97.3945 21.0117 97.3945H18.6914V100.377H21.0117C21.5352 100.377 21.959 100.266 22.2832 100.043C22.6113 99.8203 22.7754 99.4277 22.7754 98.8652ZM25.3066 96.3926H26.3613V105H25.3066V96.3926ZM30.5625 98.584C31.0078 98.584 31.4395 98.6895 31.8574 98.9004C32.2754 99.1074 32.5938 99.377 32.8125 99.709C33.0234 100.025 33.1641 100.395 33.2344 100.816C33.2969 101.105 33.3281 101.566 33.3281 102.199H28.7285C28.748 102.836 28.8984 103.348 29.1797 103.734C29.4609 104.117 29.8965 104.309 30.4863 104.309C31.0371 104.309 31.4766 104.127 31.8047 103.764C31.9922 103.553 32.125 103.309 32.2031 103.031H33.2402C33.2129 103.262 33.1211 103.52 32.9648 103.805C32.8125 104.086 32.6406 104.316 32.4492 104.496C32.1289 104.809 31.7324 105.02 31.2598 105.129C31.0059 105.191 30.7188 105.223 30.3984 105.223C29.6172 105.223 28.9551 104.939 28.4121 104.373C27.8691 103.803 27.5977 103.006 27.5977 101.982C27.5977 100.975 27.8711 100.156 28.418 99.5273C28.9648 98.8984 29.6797 98.584 30.5625 98.584ZM32.2441 101.361C32.2012 100.904 32.1016 100.539 31.9453 100.266C31.6563 99.7578 31.1738 99.5039 30.498 99.5039C30.0137 99.5039 29.6074 99.6797 29.2793 100.031C28.9512 100.379 28.7773 100.822 28.7578 101.361H32.2441ZM35.4375 103.33C35.4375 103.635 35.5488 103.875 35.7715 104.051C35.9941 104.227 36.2578 104.314 36.5625 104.314C36.9336 104.314 37.293 104.229 37.6406 104.057C38.2266 103.771 38.5195 103.305 38.5195 102.656V101.807C38.3906 101.889 38.2246 101.957 38.0215 102.012C37.8184 102.066 37.6191 102.105 37.4238 102.129L36.7852 102.211C36.4023 102.262 36.1152 102.342 35.9238 102.451C35.5996 102.635 35.4375 102.928 35.4375 103.33ZM37.9922 101.197C38.2344 101.166 38.3965 101.064 38.4785 100.893C38.5254 100.799 38.5488 100.664 38.5488 100.488C38.5488 100.129 38.4199 99.8691 38.1621 99.709C37.9082 99.5449 37.543 99.4629 37.0664 99.4629C36.5156 99.4629 36.125 99.6113 35.8945 99.9082C35.7656 100.072 35.6816 100.316 35.6426 100.641H34.6582C34.6777 99.8672 34.9277 99.3301 35.4082 99.0293C35.8926 98.7246 36.4531 98.5723 37.0898 98.5723C37.8281 98.5723 38.4277 98.7129 38.8887 98.9941C39.3457 99.2754 39.5742 99.7129 39.5742 100.307V103.922C39.5742 104.031 39.5957 104.119 39.6387 104.186C39.6855 104.252 39.7813 104.285 39.9258 104.285C39.9727 104.285 40.0254 104.283 40.084 104.279C40.1426 104.271 40.2051 104.262 40.2715 104.25V105.029C40.1074 105.076 39.9824 105.105 39.8965 105.117C39.8105 105.129 39.6934 105.135 39.5449 105.135C39.1816 105.135 38.918 105.006 38.7539 104.748C38.668 104.611 38.6074 104.418 38.5723 104.168C38.3574 104.449 38.0488 104.693 37.6465 104.9C37.2441 105.107 36.8008 105.211 36.3164 105.211C35.7344 105.211 35.2578 105.035 34.8867 104.684C34.5195 104.328 34.3359 103.885 34.3359 103.354C34.3359 102.771 34.5176 102.32 34.8809 102C35.2441 101.68 35.7207 101.482 36.3105 101.408L37.9922 101.197ZM41.9355 103.031C41.9668 103.383 42.0547 103.652 42.1992 103.84C42.4648 104.18 42.9258 104.35 43.582 104.35C43.9727 104.35 44.3164 104.266 44.6133 104.098C44.9102 103.926 45.0586 103.662 45.0586 103.307C45.0586 103.037 44.9395 102.832 44.7012 102.691C44.5488 102.605 44.248 102.506 43.7988 102.393L42.9609 102.182C42.4258 102.049 42.0313 101.9 41.7773 101.736C41.3242 101.451 41.0977 101.057 41.0977 100.553C41.0977 99.959 41.3105 99.4785 41.7363 99.1113C42.166 98.7441 42.7422 98.5605 43.4648 98.5605C44.4102 98.5605 45.0918 98.8379 45.5098 99.3926C45.7715 99.7441 45.8984 100.123 45.8906 100.529H44.8945C44.875 100.291 44.791 100.074 44.6426 99.8789C44.4004 99.6016 43.9805 99.4629 43.3828 99.4629C42.9844 99.4629 42.6816 99.5391 42.4746 99.6914C42.2715 99.8437 42.1699 100.045 42.1699 100.295C42.1699 100.568 42.3047 100.787 42.5742 100.951C42.7305 101.049 42.9609 101.135 43.2656 101.209L43.9629 101.379C44.7207 101.562 45.2285 101.74 45.4863 101.912C45.8965 102.182 46.1016 102.605 46.1016 103.184C46.1016 103.742 45.8887 104.225 45.4629 104.631C45.041 105.037 44.3965 105.24 43.5293 105.24C42.5957 105.24 41.9336 105.029 41.543 104.607C41.1563 104.182 40.9492 103.656 40.9219 103.031H41.9355ZM49.9219 98.584C50.3672 98.584 50.7988 98.6895 51.2168 98.9004C51.6348 99.1074 51.9531 99.377 52.1719 99.709C52.3828 100.025 52.5234 100.395 52.5938 100.816C52.6563 101.105 52.6875 101.566 52.6875 102.199H48.0879C48.1074 102.836 48.2578 103.348 48.5391 103.734C48.8203 104.117 49.2559 104.309 49.8457 104.309C50.3965 104.309 50.8359 104.127 51.1641 103.764C51.3516 103.553 51.4844 103.309 51.5625 103.031H52.5996C52.5723 103.262 52.4805 103.52 52.3242 103.805C52.1719 104.086 52 104.316 51.8086 104.496C51.4883 104.809 51.0918 105.02 50.6191 105.129C50.3652 105.191 50.0781 105.223 49.7578 105.223C48.9766 105.223 48.3145 104.939 47.7715 104.373C47.2285 103.803 46.957 103.006 46.957 101.982C46.957 100.975 47.2305 100.156 47.7773 99.5273C48.3242 98.8984 49.0391 98.584 49.9219 98.584ZM51.6035 101.361C51.5605 100.904 51.4609 100.539 51.3047 100.266C51.0156 99.7578 50.5332 99.5039 49.8574 99.5039C49.373 99.5039 48.9668 99.6797 48.6387 100.031C48.3105 100.379 48.1367 100.822 48.1172 101.361H51.6035ZM59.7481 98.543C60.4551 98.543 61.0293 98.7148 61.4707 99.0586C61.916 99.4023 62.1836 99.9941 62.2734 100.834H61.2481C61.1856 100.447 61.043 100.127 60.8203 99.873C60.5977 99.6152 60.2402 99.4863 59.7481 99.4863C59.0762 99.4863 58.5957 99.8145 58.3066 100.471C58.1191 100.896 58.0254 101.422 58.0254 102.047C58.0254 102.676 58.1582 103.205 58.4238 103.635C58.6895 104.064 59.1074 104.279 59.6777 104.279C60.1152 104.279 60.4609 104.146 60.7148 103.881C60.9727 103.611 61.1504 103.244 61.2481 102.779H62.2734C62.1563 103.611 61.8633 104.221 61.3945 104.607C60.9258 104.99 60.3262 105.182 59.5957 105.182C58.7754 105.182 58.1211 104.883 57.6328 104.285C57.1445 103.684 56.9004 102.934 56.9004 102.035C56.9004 100.934 57.168 100.076 57.7031 99.4629C58.2383 98.8496 58.9199 98.543 59.7481 98.543ZM63.3281 96.3633H64.3828V99.5742C64.6328 99.2578 64.8574 99.0352 65.0566 98.9062C65.3965 98.6836 65.8203 98.5723 66.3281 98.5723C67.2383 98.5723 67.8555 98.8906 68.1797 99.5273C68.3555 99.875 68.4434 100.357 68.4434 100.975V105H67.3594V101.045C67.3594 100.584 67.3008 100.246 67.1836 100.031C66.9922 99.6875 66.6328 99.5156 66.1055 99.5156C65.668 99.5156 65.2715 99.666 64.916 99.9668C64.5606 100.268 64.3828 100.836 64.3828 101.672V105H63.3281V96.3633ZM72.6211 98.584C73.0664 98.584 73.4981 98.6895 73.916 98.9004C74.334 99.1074 74.6523 99.377 74.8711 99.709C75.082 100.025 75.2227 100.395 75.293 100.816C75.3555 101.105 75.3867 101.566 75.3867 102.199H70.7871C70.8066 102.836 70.957 103.348 71.2383 103.734C71.5195 104.117 71.9551 104.309 72.5449 104.309C73.0957 104.309 73.5352 104.127 73.8633 103.764C74.0508 103.553 74.1836 103.309 74.2617 103.031H75.2988C75.2715 103.262 75.1797 103.52 75.0234 103.805C74.8711 104.086 74.6992 104.316 74.5078 104.496C74.1875 104.809 73.791 105.02 73.3184 105.129C73.0645 105.191 72.7773 105.223 72.457 105.223C71.6758 105.223 71.0137 104.939 70.4707 104.373C69.9277 103.803 69.6563 103.006 69.6563 101.982C69.6563 100.975 69.9297 100.156 70.4766 99.5273C71.0234 98.8984 71.7383 98.584 72.6211 98.584ZM74.3027 101.361C74.2598 100.904 74.1602 100.539 74.0039 100.266C73.7148 99.7578 73.2324 99.5039 72.5566 99.5039C72.0723 99.5039 71.666 99.6797 71.3379 100.031C71.0098 100.379 70.8359 100.822 70.8164 101.361H74.3027ZM79.1074 98.543C79.8145 98.543 80.3887 98.7148 80.8301 99.0586C81.2754 99.4023 81.543 99.9941 81.6328 100.834H80.6074C80.5449 100.447 80.4023 100.127 80.1797 99.873C79.957 99.6152 79.5996 99.4863 79.1074 99.4863C78.4356 99.4863 77.9551 99.8145 77.666 100.471C77.4785 100.896 77.3848 101.422 77.3848 102.047C77.3848 102.676 77.5176 103.205 77.7832 103.635C78.0488 104.064 78.4668 104.279 79.0371 104.279C79.4746 104.279 79.8203 104.146 80.0742 103.881C80.332 103.611 80.5098 103.244 80.6074 102.779H81.6328C81.5156 103.611 81.2227 104.221 80.7539 104.607C80.2852 104.99 79.6856 105.182 78.9551 105.182C78.1348 105.182 77.4805 104.883 76.9922 104.285C76.5039 103.684 76.2598 102.934 76.2598 102.035C76.2598 100.934 76.5273 100.076 77.0625 99.4629C77.5977 98.8496 78.2793 98.543 79.1074 98.543ZM82.6641 96.3926H83.6777V101.391L86.3848 98.7246H87.7324L85.3301 101.074L87.8672 105H86.5195L84.5625 101.836L83.6777 102.645V105H82.6641V96.3926ZM94.5176 104.32C95.2168 104.32 95.6953 104.057 95.9531 103.529C96.2149 102.998 96.3457 102.408 96.3457 101.76C96.3457 101.174 96.252 100.697 96.0645 100.33C95.7676 99.752 95.2559 99.4629 94.5293 99.4629C93.8848 99.4629 93.416 99.709 93.1231 100.201C92.8301 100.693 92.6836 101.287 92.6836 101.982C92.6836 102.65 92.8301 103.207 93.1231 103.652C93.416 104.098 93.8809 104.32 94.5176 104.32ZM94.5586 98.543C95.3672 98.543 96.0508 98.8125 96.6094 99.3516C97.168 99.8906 97.4473 100.684 97.4473 101.73C97.4473 102.742 97.2012 103.578 96.709 104.238C96.2168 104.898 95.4531 105.229 94.418 105.229C93.5547 105.229 92.8691 104.937 92.3613 104.355C91.8535 103.77 91.5996 102.984 91.5996 102C91.5996 100.945 91.8672 100.105 92.4024 99.4805C92.9375 98.8555 93.6563 98.543 94.5586 98.543ZM99.7617 98.7246V102.891C99.7617 103.211 99.8125 103.473 99.9141 103.676C100.102 104.051 100.451 104.238 100.963 104.238C101.697 104.238 102.197 103.91 102.463 103.254C102.607 102.902 102.68 102.42 102.68 101.807V98.7246H103.734V105H102.738L102.75 104.074C102.613 104.312 102.443 104.514 102.24 104.678C101.838 105.006 101.35 105.17 100.775 105.17C99.8809 105.17 99.2715 104.871 98.9473 104.273C98.7715 103.953 98.6836 103.525 98.6836 102.99V98.7246H99.7617ZM105.416 98.7246H106.418V99.8086C106.5 99.5977 106.701 99.3418 107.021 99.041C107.342 98.7363 107.711 98.584 108.129 98.584C108.148 98.584 108.182 98.5859 108.229 98.5898C108.275 98.5937 108.355 98.6016 108.469 98.6133V99.7266C108.406 99.7148 108.348 99.707 108.293 99.7031C108.242 99.6992 108.186 99.6973 108.123 99.6973C107.592 99.6973 107.184 99.8691 106.898 100.213C106.613 100.553 106.471 100.945 106.471 101.391V105H105.416V98.7246ZM113.391 101.936C113.391 102.607 113.533 103.17 113.818 103.623C114.104 104.076 114.561 104.303 115.189 104.303C115.678 104.303 116.078 104.094 116.391 103.676C116.707 103.254 116.865 102.65 116.865 101.865C116.865 101.072 116.703 100.486 116.379 100.107C116.055 99.7246 115.654 99.5332 115.178 99.5332C114.646 99.5332 114.215 99.7363 113.883 100.143C113.555 100.549 113.391 101.146 113.391 101.936ZM114.979 98.6133C115.459 98.6133 115.861 98.7148 116.186 98.918C116.373 99.0352 116.586 99.2402 116.824 99.5332V96.3633H117.838V105H116.889V104.127C116.643 104.514 116.352 104.793 116.016 104.965C115.68 105.137 115.295 105.223 114.861 105.223C114.162 105.223 113.557 104.93 113.045 104.344C112.533 103.754 112.277 102.971 112.277 101.994C112.277 101.08 112.51 100.289 112.975 99.6211C113.443 98.9492 114.111 98.6133 114.979 98.6133ZM121.893 104.32C122.592 104.32 123.07 104.057 123.328 103.529C123.59 102.998 123.721 102.408 123.721 101.76C123.721 101.174 123.627 100.697 123.439 100.33C123.143 99.752 122.631 99.4629 121.904 99.4629C121.26 99.4629 120.791 99.709 120.498 100.201C120.205 100.693 120.059 101.287 120.059 101.982C120.059 102.65 120.205 103.207 120.498 103.652C120.791 104.098 121.256 104.32 121.893 104.32ZM121.934 98.543C122.742 98.543 123.426 98.8125 123.984 99.3516C124.543 99.8906 124.822 100.684 124.822 101.73C124.822 102.742 124.576 103.578 124.084 104.238C123.592 104.898 122.828 105.229 121.793 105.229C120.93 105.229 120.244 104.937 119.736 104.355C119.229 103.77 118.975 102.984 118.975 102C118.975 100.945 119.242 100.105 119.777 99.4805C120.313 98.8555 121.031 98.543 121.934 98.543ZM128.502 98.543C129.209 98.543 129.783 98.7148 130.225 99.0586C130.67 99.4023 130.938 99.9941 131.027 100.834H130.002C129.939 100.447 129.797 100.127 129.574 99.873C129.352 99.6152 128.994 99.4863 128.502 99.4863C127.83 99.4863 127.35 99.8145 127.061 100.471C126.873 100.896 126.779 101.422 126.779 102.047C126.779 102.676 126.912 103.205 127.178 103.635C127.443 104.064 127.861 104.279 128.432 104.279C128.869 104.279 129.215 104.146 129.469 103.881C129.727 103.611 129.904 103.244 130.002 102.779H131.027C130.91 103.611 130.617 104.221 130.148 104.607C129.68 104.99 129.08 105.182 128.35 105.182C127.529 105.182 126.875 104.883 126.387 104.285C125.898 103.684 125.654 102.934 125.654 102.035C125.654 100.934 125.922 100.076 126.457 99.4629C126.992 98.8496 127.674 98.543 128.502 98.543ZM132.709 103.031C132.74 103.383 132.828 103.652 132.973 103.84C133.238 104.18 133.699 104.35 134.355 104.35C134.746 104.35 135.09 104.266 135.387 104.098C135.684 103.926 135.832 103.662 135.832 103.307C135.832 103.037 135.713 102.832 135.475 102.691C135.322 102.605 135.021 102.506 134.572 102.393L133.734 102.182C133.199 102.049 132.805 101.9 132.551 101.736C132.098 101.451 131.871 101.057 131.871 100.553C131.871 99.959 132.084 99.4785 132.51 99.1113C132.939 98.7441 133.516 98.5605 134.238 98.5605C135.184 98.5605 135.865 98.8379 136.283 99.3926C136.545 99.7441 136.672 100.123 136.664 100.529H135.668C135.648 100.291 135.564 100.074 135.416 99.8789C135.174 99.6016 134.754 99.4629 134.156 99.4629C133.758 99.4629 133.455 99.5391 133.248 99.6914C133.045 99.8437 132.943 100.045 132.943 100.295C132.943 100.568 133.078 100.787 133.348 100.951C133.504 101.049 133.734 101.135 134.039 101.209L134.736 101.379C135.494 101.562 136.002 101.74 136.26 101.912C136.67 102.182 136.875 102.605 136.875 103.184C136.875 103.742 136.662 104.225 136.236 104.631C135.814 105.037 135.17 105.24 134.303 105.24C133.369 105.24 132.707 105.029 132.316 104.607C131.93 104.182 131.723 103.656 131.695 103.031H132.709Z" fill="white"/>
<path d="M17.0323 77.4238H19.2403L23.253 84.458V77.4238H25.2149V87.5H23.1095L18.9942 80.3428V87.5H17.0323V77.4238ZM29.9659 81.457C29.5147 81.457 29.1638 81.5983 28.9132 81.8809C28.6671 82.1634 28.5121 82.5462 28.4483 83.0293H31.4767C31.4448 82.5143 31.2875 82.1247 31.005 81.8604C30.727 81.5915 30.3806 81.457 29.9659 81.457ZM29.9659 79.8506C30.5857 79.8506 31.144 79.9668 31.6407 80.1992C32.1375 80.4316 32.5476 80.7985 32.8712 81.2998C33.1629 81.7419 33.352 82.2546 33.4386 82.8379C33.4887 83.1797 33.5092 83.6719 33.5001 84.3145H28.4005C28.4278 85.0618 28.6625 85.5859 29.1046 85.8867C29.3735 86.0736 29.697 86.167 30.0753 86.167C30.4763 86.167 30.8022 86.0531 31.0528 85.8252C31.1896 85.7021 31.3103 85.5312 31.4151 85.3125H33.4044C33.3543 85.7546 33.1241 86.2035 32.714 86.6592C32.0759 87.3838 31.1827 87.7461 30.0343 87.7461C29.0864 87.7461 28.2501 87.4408 27.5255 86.8301C26.8009 86.2194 26.4386 85.2259 26.4386 83.8496C26.4386 82.5599 26.7644 81.571 27.4161 80.8828C28.0724 80.1947 28.9223 79.8506 29.9659 79.8506ZM37.7589 81.457C37.3077 81.457 36.9568 81.5983 36.7062 81.8809C36.4601 82.1634 36.3051 82.5462 36.2413 83.0293H39.2696C39.2377 82.5143 39.0805 82.1247 38.798 81.8604C38.52 81.5915 38.1736 81.457 37.7589 81.457ZM37.7589 79.8506C38.3787 79.8506 38.9369 79.9668 39.4337 80.1992C39.9304 80.4316 40.3406 80.7985 40.6642 81.2998C40.9558 81.7419 41.145 82.2546 41.2315 82.8379C41.2817 83.1797 41.3022 83.6719 41.2931 84.3145H36.1935C36.2208 85.0618 36.4555 85.5859 36.8976 85.8867C37.1664 86.0736 37.49 86.167 37.8683 86.167C38.2693 86.167 38.5952 86.0531 38.8458 85.8252C38.9825 85.7021 39.1033 85.5312 39.2081 85.3125H41.1974C41.1472 85.7546 40.9171 86.2035 40.5069 86.6592C39.8689 87.3838 38.9757 87.7461 37.8272 87.7461C36.8793 87.7461 36.0431 87.4408 35.3185 86.8301C34.5938 86.2194 34.2315 85.2259 34.2315 83.8496C34.2315 82.5599 34.5574 81.571 35.2091 80.8828C35.8653 80.1947 36.7153 79.8506 37.7589 79.8506ZM45.3605 79.8711C45.8116 79.8711 46.2127 79.9714 46.5636 80.1719C46.9145 80.3678 47.1993 80.6413 47.4181 80.9922V77.4375H49.3937V87.5H47.5001V86.4678C47.2221 86.9098 46.9054 87.2311 46.5499 87.4316C46.1944 87.6322 45.7524 87.7324 45.2237 87.7324C44.3533 87.7324 43.6196 87.3815 43.0226 86.6797C42.4301 85.9733 42.1339 85.0687 42.1339 83.9658C42.1339 82.6943 42.4256 81.694 43.0089 80.9648C43.5968 80.2357 44.3806 79.8711 45.3605 79.8711ZM45.7843 86.0918C46.3357 86.0918 46.755 85.8867 47.0421 85.4766C47.3292 85.0664 47.4728 84.5355 47.4728 83.8838C47.4728 82.9723 47.2426 82.3206 46.7823 81.9287C46.4998 81.6917 46.1716 81.5732 45.798 81.5732C45.2283 81.5732 44.809 81.7897 44.5401 82.2227C44.2758 82.651 44.1437 83.1842 44.1437 83.8223C44.1437 84.5104 44.2781 85.0618 44.547 85.4766C44.8204 85.8867 45.2328 86.0918 45.7843 86.0918ZM59.1759 79.8574C59.6362 79.8574 60.0532 79.9372 60.4269 80.0967C60.8051 80.2562 61.115 80.5 61.3565 80.8281C61.5616 81.1061 61.687 81.3932 61.7325 81.6895C61.7781 81.9811 61.8009 82.4596 61.8009 83.125V87.5H59.8116V82.9678C59.8116 82.5667 59.7433 82.2432 59.6065 81.9971C59.4288 81.6507 59.0916 81.4775 58.5948 81.4775C58.0799 81.4775 57.6879 81.6507 57.419 81.9971C57.1547 82.3389 57.0226 82.8288 57.0226 83.4668V87.5H55.0812V77.458H57.0226V81.0195C57.3051 80.5866 57.631 80.2858 58.0001 80.1172C58.3738 79.944 58.7657 79.8574 59.1759 79.8574ZM66.5655 81.457C66.1144 81.457 65.7634 81.5983 65.5128 81.8809C65.2667 82.1634 65.1118 82.5462 65.048 83.0293H68.0763C68.0444 82.5143 67.8871 82.1247 67.6046 81.8604C67.3266 81.5915 66.9802 81.457 66.5655 81.457ZM66.5655 79.8506C67.1853 79.8506 67.7436 79.9668 68.2403 80.1992C68.7371 80.4316 69.1472 80.7985 69.4708 81.2998C69.7625 81.7419 69.9516 82.2546 70.0382 82.8379C70.0883 83.1797 70.1088 83.6719 70.0997 84.3145H65.0001C65.0274 85.0618 65.2621 85.5859 65.7042 85.8867C65.9731 86.0736 66.2967 86.167 66.6749 86.167C67.0759 86.167 67.4018 86.0531 67.6524 85.8252C67.7892 85.7021 67.9099 85.5312 68.0147 85.3125H70.004C69.9539 85.7546 69.7237 86.2035 69.3136 86.6592C68.6756 87.3838 67.7823 87.7461 66.6339 87.7461C65.686 87.7461 64.8497 87.4408 64.1251 86.8301C63.4005 86.2194 63.0382 85.2259 63.0382 83.8496C63.0382 82.5599 63.364 81.571 64.0157 80.8828C64.672 80.1947 65.5219 79.8506 66.5655 79.8506ZM73.4083 87.5H71.4601V77.4238H73.4083V87.5ZM80.4493 83.7744C80.4493 83.2002 80.3172 82.6921 80.0528 82.25C79.7931 81.8079 79.3692 81.5869 78.7814 81.5869C78.075 81.5869 77.5896 81.9219 77.3253 82.5918C77.1886 82.9473 77.1202 83.3984 77.1202 83.9453C77.1202 84.8112 77.3504 85.4196 77.8106 85.7705C78.0841 85.9756 78.4077 86.0781 78.7814 86.0781C79.3237 86.0781 79.7361 85.8685 80.0187 85.4492C80.3058 85.0299 80.4493 84.4717 80.4493 83.7744ZM79.3419 79.8848C80.2123 79.8848 80.9483 80.2061 81.5499 80.8486C82.156 81.4912 82.4591 82.4346 82.4591 83.6787C82.4591 84.9912 82.1629 85.9915 81.5704 86.6797C80.9825 87.3678 80.2237 87.7119 79.294 87.7119C78.7016 87.7119 78.2094 87.5638 77.8175 87.2676C77.6033 87.1035 77.3937 86.8643 77.1886 86.5498V90.4326H75.2608V80.0488H77.1271V81.1494C77.3367 80.8258 77.56 80.5706 77.797 80.3838C78.2299 80.0511 78.7449 79.8848 79.3419 79.8848ZM86.3009 85.5244H88.338V87.5H86.3009V85.5244ZM83.8058 80.6025C83.8605 79.3037 84.3139 78.3831 85.1661 77.8408C85.7039 77.4945 86.3647 77.3213 87.1485 77.3213C88.1785 77.3213 89.033 77.5674 89.712 78.0596C90.3956 78.5518 90.7374 79.2809 90.7374 80.2471C90.7374 80.8395 90.5893 81.3385 90.2931 81.7441C90.1199 81.9902 89.7872 82.3047 89.295 82.6875L88.8097 83.0635C88.5454 83.2686 88.3699 83.5078 88.2833 83.7812C88.2286 83.9544 88.199 84.2233 88.1944 84.5879H86.3487C86.3761 83.8177 86.449 83.2868 86.5675 82.9951C86.686 82.6989 86.9913 82.3594 87.4835 81.9766L87.9825 81.5869C88.1466 81.4639 88.2788 81.3294 88.379 81.1836C88.5613 80.9329 88.6524 80.6572 88.6524 80.3564C88.6524 80.0101 88.5499 79.6956 88.3448 79.4131C88.1443 79.126 87.7752 78.9824 87.2374 78.9824C86.7088 78.9824 86.3328 79.1579 86.1095 79.5088C85.8907 79.8597 85.7814 80.2243 85.7814 80.6025H83.8058Z" fill="white"/>
<rect x="16.4999" y="16" width="35" height="35" rx="12" fill="white"/>
<path d="M33.9999 24.4999C29.0311 24.4999 24.9999 28.5312 24.9999 33.4999C24.9999 38.4687 29.0311 42.4999 33.9999 42.4999C38.9686 42.4999 42.9999 38.4687 42.9999 33.4999C42.9999 28.5312 38.9686 24.4999 33.9999 24.4999ZM33.7186 38.7499C33.5332 38.7499 33.3519 38.695 33.1978 38.5919C33.0436 38.4889 32.9234 38.3425 32.8525 38.1712C32.7815 37.9999 32.763 37.8114 32.7991 37.6295C32.8353 37.4477 32.9246 37.2806 33.0557 37.1495C33.1868 37.0184 33.3539 36.9291 33.5357 36.893C33.7176 36.8568 33.9061 36.8753 34.0774 36.9463C34.2487 37.0173 34.3951 37.1374 34.4981 37.2916C34.6011 37.4458 34.6561 37.627 34.6561 37.8124C34.6561 38.0611 34.5574 38.2995 34.3815 38.4754C34.2057 38.6512 33.9673 38.7499 33.7186 38.7499ZM35.2861 33.9687C34.5263 34.4787 34.4218 34.946 34.4218 35.3749C34.4218 35.549 34.3526 35.7159 34.2295 35.839C34.1065 35.962 33.9395 36.0312 33.7655 36.0312C33.5915 36.0312 33.4245 35.962 33.3015 35.839C33.1784 35.7159 33.1093 35.549 33.1093 35.3749C33.1093 34.3479 33.5818 33.5313 34.5539 32.8784C35.4577 32.2718 35.9686 31.8874 35.9686 31.0423C35.9686 30.4676 35.6405 30.0312 34.9613 29.7082C34.8014 29.6323 34.4457 29.5582 34.0078 29.5634C33.4585 29.5704 33.0319 29.7017 32.7033 29.966C32.0836 30.4648 32.0311 31.0076 32.0311 31.0156C32.027 31.1017 32.0059 31.1863 31.9691 31.2643C31.9322 31.3423 31.8804 31.4123 31.8165 31.4703C31.7527 31.5283 31.678 31.5732 31.5968 31.6023C31.5156 31.6315 31.4294 31.6443 31.3432 31.6402C31.2571 31.636 31.1725 31.6149 31.0945 31.5781C31.0165 31.5413 30.9465 31.4895 30.8885 31.4256C30.8305 31.3617 30.7856 31.287 30.7565 31.2058C30.7273 31.1246 30.7145 31.0385 30.7186 30.9523C30.7238 30.8384 30.803 29.8123 31.8797 28.946C32.438 28.497 33.1482 28.2635 33.9891 28.2532C34.5844 28.2462 35.1436 28.347 35.5228 28.526C36.6577 29.0628 37.2811 29.9576 37.2811 31.0423C37.2811 32.6281 36.2213 33.3401 35.2861 33.9687Z" fill="#4FD1C5"/>
<defs>
<clipPath id="clip0_1502_373">
<rect width="87.5" height="24.0058" fill="white" transform="translate(65.2501 123.997)"/>
</clipPath>
<clipPath id="clip1_1502_373">
<rect width="87.5" height="15" fill="white" transform="translate(65.25 128.497)"/>
</clipPath>
<clipPath id="clip2_1502_373">
<rect width="24.0058" height="0.00576161" fill="white" transform="translate(96.9972 147.997)"/>
</clipPath>
</defs>
</svg>
