<svg width="11" height="11" viewBox="0 0 11 11" fill="none" xmlns="http://www.w3.org/2000/svg">
<path d="M5.5 1.0307C3.03596 1.0307 1.03125 3.03541 1.03125 5.49945C1.03125 7.96349 3.03596 9.9682 5.5 9.9682C7.96404 9.9682 9.96875 7.96349 9.96875 5.49945C9.96875 3.03541 7.96404 1.0307 5.5 1.0307ZM4.42105 3.54051C4.69326 3.25197 5.07633 3.0932 5.5 3.0932C5.92367 3.0932 6.3033 3.25304 6.57658 3.54308C6.85351 3.83699 6.98822 4.23187 6.95643 4.6564C6.89283 5.49945 6.23971 6.18695 5.5 6.18695C4.76029 6.18695 4.10588 5.49945 4.04357 4.65619C4.01199 4.22822 4.14648 3.83205 4.42105 3.54051ZM5.5 9.2807C4.99522 9.28103 4.49551 9.18 4.0305 8.98359C3.5655 8.78718 3.14467 8.4994 2.79297 8.1373C2.9944 7.85005 3.25105 7.60581 3.54793 7.41886C4.09557 7.06781 4.78865 6.87445 5.5 6.87445C6.21135 6.87445 6.90443 7.06781 7.45143 7.41886C7.74855 7.60573 8.00543 7.84997 8.20703 8.1373C7.85536 8.49944 7.43454 8.78725 6.96953 8.98366C6.50451 9.18007 6.00479 9.28108 5.5 9.2807Z" fill="#2D3748"/>
</svg>
