<svg width="15" height="15" viewBox="0 0 15 15" fill="none" xmlns="http://www.w3.org/2000/svg">
<g clip-path="url(#clip0_1502_416)">
<path d="M13.7567 3.53142C13.7229 3.46577 13.6741 3.40902 13.6143 3.3658C13.5545 3.32257 13.4853 3.29409 13.4123 3.28267C13.3394 3.27124 13.2648 3.27721 13.1946 3.30007C13.1244 3.32293 13.0606 3.36205 13.0084 3.41423L11.2084 5.2154C11.1201 5.30248 11.001 5.35129 10.8769 5.35129C10.7529 5.35129 10.6338 5.30248 10.5454 5.2154L9.76732 4.43611C9.72378 4.39258 9.68925 4.3409 9.66568 4.28402C9.64212 4.22714 9.62999 4.16618 9.62999 4.10461C9.62999 4.04305 9.64212 3.98208 9.66568 3.9252C9.68925 3.86833 9.72378 3.81665 9.76732 3.77312L11.5597 1.98044C11.6134 1.92672 11.6533 1.86074 11.6759 1.78818C11.6984 1.71563 11.703 1.63868 11.6892 1.56395C11.6755 1.48923 11.6437 1.41898 11.5968 1.35924C11.5498 1.29951 11.489 1.25209 11.4197 1.22107C10.0659 0.615794 8.37601 0.931614 7.31049 1.98923C6.40521 2.88806 6.13539 4.29255 6.57074 5.84265C6.59421 5.92531 6.59435 6.01286 6.57113 6.09559C6.54791 6.17832 6.50225 6.25302 6.4392 6.3114L1.56186 10.766C1.37185 10.9366 1.21859 11.1441 1.11142 11.3759C1.00426 11.6077 0.945436 11.8588 0.938544 12.1141C0.931651 12.3694 0.976833 12.6234 1.07133 12.8606C1.16584 13.0978 1.30767 13.3133 1.4882 13.4939C1.66872 13.6745 1.88415 13.8164 2.12133 13.9111C2.35852 14.0057 2.61249 14.051 2.86775 14.0442C3.12302 14.0374 3.37423 13.9787 3.60606 13.8716C3.83788 13.7646 4.04547 13.6114 4.21615 13.4215L8.7185 8.53327C8.77604 8.47103 8.84947 8.42567 8.93088 8.40208C9.0123 8.37849 9.0986 8.37755 9.18051 8.39938C9.62182 8.5203 10.077 8.58304 10.5346 8.58601C11.5131 8.58601 12.3718 8.26931 12.9911 7.65905C14.1381 6.52907 14.313 4.61247 13.7567 3.53142ZM2.91508 13.1007C2.72213 13.1217 2.5274 13.0824 2.35776 12.988C2.18813 12.8937 2.05195 12.7491 1.96802 12.5741C1.8841 12.399 1.85656 12.2023 1.88921 12.011C1.92187 11.8196 2.0131 11.6432 2.15032 11.5059C2.28755 11.3686 2.46399 11.2773 2.65531 11.2446C2.84663 11.2119 3.04338 11.2394 3.21843 11.3232C3.39347 11.4071 3.53817 11.5432 3.63255 11.7128C3.72693 11.8824 3.76635 12.0771 3.74535 12.2701C3.72225 12.4824 3.62736 12.6804 3.47638 12.8315C3.3254 12.9825 3.12738 13.0775 2.91508 13.1007Z" fill="#4FD1C5"/>
</g>
<defs>
<clipPath id="clip0_1502_416">
<rect width="15" height="15" fill="white"/>
</clipPath>
</defs>
</svg>
