<svg width="15" height="15" viewBox="0 0 15 15" fill="none" xmlns="http://www.w3.org/2000/svg">
<g clip-path="url(#clip0_1502_420)">
<path d="M0.937449 11.0152C0.937449 11.4503 1.1103 11.8676 1.41798 12.1753C1.72565 12.483 2.14295 12.6558 2.57807 12.6558H12.4218C12.8569 12.6558 13.2742 12.483 13.5819 12.1753C13.8896 11.8676 14.0624 11.4503 14.0624 11.0152V6.50348H0.937449V11.0152ZM2.87104 8.78864C2.87104 8.55553 2.96364 8.33198 3.12847 8.16715C3.29329 8.00233 3.51685 7.90973 3.74995 7.90973H5.1562C5.3893 7.90973 5.61285 8.00233 5.77768 8.16715C5.9425 8.33198 6.0351 8.55553 6.0351 8.78864V9.37457C6.0351 9.60767 5.9425 9.83123 5.77768 9.99605C5.61285 10.1609 5.3893 10.2535 5.1562 10.2535H3.74995C3.51685 10.2535 3.29329 10.1609 3.12847 9.99605C2.96364 9.83123 2.87104 9.60767 2.87104 9.37457V8.78864Z" fill="white"/>
<path d="M12.4218 2.34296H2.57807C2.14295 2.34296 1.72565 2.51581 1.41798 2.82348C1.1103 3.13116 0.937449 3.54846 0.937449 3.98358V4.7453H14.0624V3.98358C14.0624 3.54846 13.8896 3.13116 13.5819 2.82348C13.2742 2.51581 12.8569 2.34296 12.4218 2.34296V2.34296Z" fill="white"/>
</g>
<defs>
<clipPath id="clip0_1502_420">
<rect width="15" height="15" fill="white"/>
</clipPath>
</defs>
</svg>
