<svg width="40" height="40" viewBox="0 0 40 40" fill="none" xmlns="http://www.w3.org/2000/svg">
<circle cx="20" cy="20" r="20" fill="#7C4EE4"/>
<path d="M11.184 26V14.64H18.816V16.576H13.392V19.504H17.904V21.296H13.392V26H11.184ZM29.5235 23.072C29.5235 23.712 29.3582 24.2507 29.0275 24.688C28.6968 25.1147 28.2488 25.44 27.6835 25.664C27.1288 25.888 26.5208 26 25.8595 26H20.3715V14.64H26.4515C26.9848 14.64 27.4435 14.784 27.8275 15.072C28.2222 15.3493 28.5208 15.712 28.7235 16.16C28.9368 16.5973 29.0435 17.056 29.0435 17.536C29.0435 18.08 28.9048 18.5973 28.6275 19.088C28.3502 19.5787 27.9448 19.9413 27.4115 20.176C28.0622 20.368 28.5742 20.7147 28.9475 21.216C29.3315 21.7173 29.5235 22.336 29.5235 23.072ZM27.2995 22.656C27.2995 22.368 27.2408 22.112 27.1235 21.888C27.0062 21.6533 26.8462 21.472 26.6435 21.344C26.4515 21.2053 26.2275 21.136 25.9715 21.136H22.5795V24.128H25.8595C26.1262 24.128 26.3662 24.064 26.5795 23.936C26.8035 23.7973 26.9795 23.616 27.1075 23.392C27.2355 23.168 27.2995 22.9227 27.2995 22.656ZM22.5795 16.528V19.392H25.5235C25.7688 19.392 25.9928 19.3333 26.1955 19.216C26.3982 19.0987 26.5582 18.9333 26.6755 18.72C26.8035 18.5067 26.8675 18.2507 26.8675 17.952C26.8675 17.664 26.8088 17.4133 26.6915 17.2C26.5848 16.9867 26.4355 16.8213 26.2435 16.704C26.0622 16.5867 25.8542 16.528 25.6195 16.528H22.5795Z" fill="white"/>
</svg>
