<svg width="40" height="40" viewBox="0 0 40 40" fill="none" xmlns="http://www.w3.org/2000/svg">
<circle cx="20" cy="20" r="20" fill="#7C4EE4"/>
<path d="M12.184 26V14.64H14.392V26H12.184ZM21.4821 26.08C20.7461 26.08 20.0475 25.9307 19.3861 25.632C18.7355 25.3333 18.1595 24.9227 17.6581 24.4C17.1675 23.8667 16.7835 23.248 16.5061 22.544C16.2288 21.84 16.0901 21.0773 16.0901 20.256C16.0901 19.4773 16.2288 18.7467 16.5061 18.064C16.7835 17.3707 17.1728 16.7627 17.6741 16.24C18.1755 15.7173 18.7621 15.3067 19.4341 15.008C20.1061 14.7093 20.8368 14.56 21.6261 14.56C22.6928 14.56 23.6048 14.7893 24.3621 15.248C25.1301 15.696 25.7061 16.2933 26.0901 17.04L24.4421 18.256C24.1541 17.6907 23.7488 17.2587 23.2261 16.96C22.7141 16.6613 22.1541 16.512 21.5461 16.512C21.0661 16.512 20.6288 16.6133 20.2341 16.816C19.8395 17.0187 19.4981 17.296 19.2101 17.648C18.9221 18 18.6981 18.4053 18.5381 18.864C18.3888 19.3227 18.3141 19.808 18.3141 20.32C18.3141 20.864 18.3941 21.3653 18.5541 21.824C18.7248 22.2827 18.9595 22.6827 19.2581 23.024C19.5675 23.3653 19.9248 23.6373 20.3301 23.84C20.7355 24.032 21.1835 24.128 21.6741 24.128C22.2501 24.128 22.7995 23.9787 23.3221 23.68C23.8555 23.3813 24.3515 22.944 24.8101 22.368V24.544C23.8608 25.568 22.7515 26.08 21.4821 26.08ZM24.6501 21.776H22.3621V20.16H26.4741V26H24.6501V21.776Z" fill="white"/>
</svg>
